<?xml version="1.0" standalone="no"?>
<!DOCTYPE svg PUBLIC "-//W3C//DTD SVG 20010904//EN"
 "http://www.w3.org/TR/2001/REC-SVG-20010904/DTD/svg10.dtd">
<svg version="1.0" xmlns="http://www.w3.org/2000/svg"
 width="1210.000000pt" height="1210.000000pt" viewBox="0 0 1210.000000 1210.000000"
 preserveAspectRatio="xMidYMid meet">
<metadata>
Created by potrace 1.14, written by Peter Selinger 2001-2017
</metadata>
<g transform="translate(0.000000,1210.000000) scale(0.100000,-0.100000)"
fill="#000000" stroke="none">
<path d="M3229 11776 c-164 -58 -208 -271 -79 -379 60 -51 195 -106 275 -112
153 -12 266 164 196 308 -49 102 -196 197 -301 197 -30 -1 -71 -7 -91 -14z"/>
<path d="M4045 11686 c-22 -9 -59 -35 -82 -59 -102 -109 -92 -301 22 -406 56
-52 106 -72 178 -73 49 -1 64 4 107 33 27 18 59 51 72 74 20 35 23 52 21 138
-3 152 -41 235 -133 282 -46 24 -135 29 -185 11z"/>
<path d="M733 11377 c-30 -16 -74 -60 -90 -91 -20 -39 -19 -109 4 -152 51 -97
319 -370 401 -407 12 -6 22 -14 22 -19 0 -4 4 -8 8 -8 5 0 44 -20 87 -45 43
-24 164 -78 269 -120 105 -42 205 -83 221 -90 148 -64 631 -233 714 -250 9 -2
54 -13 101 -25 47 -12 96 -24 110 -26 14 -3 43 -10 65 -16 22 -5 47 -11 55
-13 8 -2 33 -8 55 -13 72 -19 375 -71 504 -88 25 -3 47 -7 50 -9 3 -1 35 -6
71 -10 36 -3 72 -8 80 -10 8 -3 35 -7 60 -10 25 -3 90 -12 145 -20 55 -7 123
-17 150 -20 28 -4 140 -6 250 -6 590 4 1013 10 1035 15 14 3 39 9 55 11 52 10
158 36 215 55 87 28 927 355 1025 400 25 11 205 69 231 74 10 2 84 21 164 41
80 20 156 39 170 42 14 2 59 11 100 19 41 8 86 17 100 20 14 2 36 7 50 9 14 3
34 7 45 9 120 23 194 37 215 41 13 2 42 7 64 11 22 3 43 7 46 9 3 2 25 6 50
10 25 4 48 9 53 12 4 2 107 6 228 8 121 2 228 6 237 9 9 3 33 8 52 11 19 3 53
11 75 17 22 6 103 12 180 13 209 4 1026 5 1055 1 14 -2 50 -6 80 -10 30 -4 69
-10 85 -12 69 -11 83 -13 145 -19 104 -10 135 -14 325 -46 181 -30 194 -32
295 -44 152 -18 507 -97 625 -140 196 -71 314 -160 378 -282 33 -66 63 -144
72 -194 3 -13 7 -35 10 -49 2 -14 7 -70 11 -125 3 -55 12 -129 19 -165 27
-133 30 -207 26 -766 l-1 -100 -52 3 c-68 5 -213 39 -468 112 -228 66 -316 87
-405 96 -33 4 -62 9 -65 10 -3 2 -34 6 -70 10 -36 4 -67 8 -70 10 -3 2 -34 6
-70 10 -36 4 -68 9 -72 11 -29 18 -719 28 -793 13 -284 -62 -479 -287 -502
-582 -15 -200 -5 -382 31 -537 35 -150 130 -410 256 -695 10 -22 52 -119 93
-215 135 -313 245 -549 307 -655 33 -58 86 -151 119 -207 32 -57 93 -164 136
-238 97 -169 303 -478 449 -675 61 -82 113 -152 116 -155 3 -3 16 -21 30 -40
13 -19 28 -39 32 -45 8 -9 147 -199 186 -254 9 -13 26 -35 38 -50 21 -27 274
-431 291 -466 29 -58 85 -251 109 -380 14 -69 12 -295 -2 -357 -19 -82 -26
-99 -99 -248 -145 -292 -339 -578 -526 -775 -217 -228 -302 -310 -414 -395
-33 -25 -89 -68 -125 -96 -167 -129 -1114 -744 -1146 -744 -3 0 -30 -16 -60
-35 -30 -19 -57 -35 -59 -35 -3 0 -22 -11 -43 -23 -20 -13 -80 -46 -132 -74
-149 -78 -228 -121 -320 -174 -125 -72 -233 -113 -435 -169 -305 -83 -334 -88
-655 -106 -195 -10 -368 -7 -510 11 -75 9 -133 18 -205 31 -77 15 -95 18 -140
28 -11 3 -51 11 -90 20 -210 45 -557 133 -736 185 -438 127 -1082 334 -1559
501 -96 34 -195 68 -220 77 -25 8 -128 47 -230 85 -102 39 -277 103 -390 143
-113 40 -268 97 -345 127 -77 31 -199 78 -272 106 -132 52 -302 123 -403 169
-30 14 -73 32 -95 41 -42 16 -240 117 -341 173 -104 58 -355 230 -480 330
-177 141 -231 213 -270 362 -16 60 -21 202 -9 257 3 14 8 43 11 65 18 134 98
470 145 615 64 195 97 242 196 281 52 20 78 23 248 25 l190 3 150 -40 c83 -22
166 -44 185 -49 19 -5 55 -14 80 -20 100 -26 312 -63 475 -84 61 -8 79 -13
335 -88 113 -32 309 -99 435 -148 617 -237 1140 -430 1208 -445 45 -9 244 -63
317 -85 41 -12 194 -70 340 -127 285 -113 465 -179 600 -221 82 -25 94 -26
345 -26 288 0 337 7 444 64 97 52 132 144 88 232 -41 81 -121 113 -210 83 -28
-10 -83 -19 -122 -21 -193 -7 -335 -7 -385 1 -65 9 -317 96 -560 193 -374 148
-404 159 -660 226 -116 31 -392 121 -470 154 -14 6 -133 51 -266 101 -133 49
-358 135 -500 189 -250 96 -406 150 -489 171 -22 5 -96 26 -165 46 -137 40
-134 39 -203 49 -27 4 -56 9 -65 10 -10 2 -44 7 -77 12 -33 4 -62 8 -65 9 -3
0 -27 5 -55 10 -27 4 -54 9 -60 11 -5 1 -28 5 -50 9 -22 3 -125 29 -230 57
-304 81 -327 84 -557 83 -234 -2 -315 -17 -453 -85 -114 -56 -193 -139 -264
-278 -33 -64 -109 -308 -142 -453 -16 -74 -36 -159 -43 -189 -12 -48 -20 -86
-40 -210 -3 -14 -10 -57 -17 -96 -11 -69 -8 -263 6 -329 26 -128 83 -264 143
-344 73 -98 281 -257 477 -366 39 -21 86 -47 105 -58 19 -11 53 -30 75 -42
125 -68 181 -99 190 -105 33 -24 264 -139 405 -200 91 -40 185 -81 210 -92 25
-12 160 -65 300 -120 140 -55 269 -106 285 -113 17 -8 50 -20 75 -29 25 -8
122 -42 215 -76 94 -34 283 -99 420 -145 138 -46 304 -102 370 -125 66 -24
152 -53 190 -67 95 -33 256 -89 335 -118 187 -68 1095 -358 1465 -468 264 -79
299 -89 355 -100 14 -3 84 -20 155 -37 72 -18 139 -34 150 -35 11 -2 58 -10
105 -20 47 -9 114 -19 150 -22 36 -2 92 -8 125 -12 103 -12 523 3 655 24 14 2
59 9 100 15 111 17 449 105 569 147 158 55 586 282 920 486 95 59 175 107 176
107 2 0 59 36 127 80 67 43 150 96 183 116 33 21 125 80 205 132 80 53 197
129 260 170 94 61 269 189 290 212 3 3 32 25 65 50 151 113 527 499 692 710
72 92 265 412 338 560 116 234 145 341 150 550 3 153 -8 250 -45 405 -52 218
-98 336 -187 477 -219 351 -269 423 -614 879 -174 231 -357 499 -451 662 -37
66 -68 120 -68 122 0 2 -14 28 -31 57 -18 29 -44 76 -59 103 -15 28 -58 104
-95 170 -54 95 -275 562 -275 580 0 3 -11 28 -24 57 -115 252 -271 639 -310
770 -39 130 -47 188 -50 336 -5 223 13 300 86 368 75 72 107 77 418 77 225 -1
294 -5 465 -32 106 -17 204 -31 253 -36 93 -11 165 -29 410 -99 180 -52 241
-69 301 -82 13 -3 51 -11 84 -19 37 -9 106 -13 186 -12 104 2 134 6 172 24 60
27 125 86 151 137 46 89 48 116 45 561 -2 231 -6 434 -10 450 -26 125 -29 151
-42 315 -20 266 -142 522 -319 674 -139 118 -312 193 -608 260 -174 40 -243
54 -303 62 -22 3 -78 12 -125 19 -47 8 -103 17 -125 20 -22 3 -56 8 -75 11
-55 8 -292 44 -320 49 -14 3 -51 7 -83 10 -92 8 -211 22 -257 31 -77 15 -222
19 -780 19 -596 0 -650 -1 -715 -19 -52 -13 -116 -19 -250 -21 -171 -4 -312
-12 -324 -20 -3 -1 -24 -6 -46 -9 -164 -26 -442 -75 -580 -102 -11 -2 -33 -7
-50 -9 -77 -14 -471 -118 -560 -148 -55 -19 -212 -80 -350 -135 -137 -55 -340
-134 -450 -177 -110 -42 -220 -85 -245 -95 -61 -24 -242 -68 -310 -74 -71 -7
-1169 -9 -1195 -3 -11 3 -42 8 -70 12 -27 4 -63 9 -80 11 -16 2 -48 6 -70 9
-22 3 -51 7 -65 10 -14 2 -45 7 -70 10 -25 3 -56 8 -70 10 -33 6 -75 13 -130
20 -76 10 -223 35 -270 45 -25 6 -58 12 -75 14 -16 2 -70 13 -120 25 -49 12
-146 36 -215 52 -202 48 -502 150 -850 289 -409 164 -551 244 -653 369 -41 51
-103 121 -144 165 -16 16 -43 35 -61 43 -36 15 -110 15 -139 0z"/>
<path d="M304 10880 c-102 -22 -161 -143 -120 -241 16 -37 51 -79 66 -79 5 0
38 -25 72 -56 57 -51 302 -220 388 -267 103 -57 128 -71 166 -98 67 -46 142
-84 254 -129 58 -23 157 -67 220 -97 63 -31 158 -73 210 -95 52 -22 109 -46
125 -53 32 -15 137 -52 425 -150 286 -98 493 -175 615 -231 102 -46 461 -164
545 -178 90 -15 108 -19 135 -27 17 -4 44 -11 60 -13 76 -13 99 -17 152 -31
31 -8 80 -17 110 -21 30 -3 64 -7 76 -10 68 -13 145 -27 162 -29 123 -17 186
-26 206 -31 86 -18 123 -23 193 -29 44 -3 82 -7 85 -9 3 -2 28 -7 54 -10 26
-4 71 -11 100 -17 59 -11 924 -7 972 5 109 26 160 42 249 76 338 128 899 305
1031 324 22 3 117 30 210 60 330 106 613 178 870 221 11 2 49 9 85 15 136 23
219 42 330 75 63 19 140 37 170 40 30 4 75 10 100 15 25 5 46 7 48 6 5 -5 -55
-139 -128 -286 -134 -270 -235 -573 -255 -770 -8 -78 -10 -1306 -2 -1370 10
-74 18 -123 27 -160 5 -19 12 -51 15 -70 14 -84 81 -368 120 -510 60 -215 103
-327 184 -485 121 -235 174 -317 325 -500 36 -44 69 -85 74 -90 133 -163 234
-262 359 -356 53 -40 104 -78 112 -85 9 -7 54 -43 101 -80 47 -38 87 -71 90
-74 3 -3 46 -36 96 -72 51 -37 114 -91 141 -120 28 -29 69 -73 92 -98 106
-113 175 -247 207 -400 3 -14 9 -41 15 -61 10 -38 13 -525 4 -594 -18 -131
-55 -218 -204 -470 -303 -511 -313 -528 -376 -590 -64 -64 -253 -205 -325
-243 -78 -41 -112 -54 -371 -146 -240 -85 -428 -172 -650 -303 -306 -179 -489
-280 -535 -292 -43 -12 -668 -19 -714 -9 -111 25 -196 40 -255 44 -38 2 -99 7
-134 9 -36 3 -139 18 -230 35 -225 40 -220 39 -274 45 -39 5 -208 34 -342 59
-258 49 -305 60 -488 110 -70 19 -154 40 -186 46 -32 6 -116 28 -187 49 -350
106 -445 134 -639 186 -479 129 -727 204 -1045 318 -126 45 -458 175 -517 202
-17 8 -71 31 -121 50 -49 19 -123 49 -164 68 -69 32 -110 55 -345 194 -105 62
-265 199 -281 240 -12 29 -15 53 -13 90 2 49 30 51 542 51 373 0 488 -3 539
-14 36 -8 74 -16 85 -18 39 -8 297 -87 347 -107 28 -11 102 -44 165 -75 221
-106 486 -214 586 -240 56 -14 140 -37 187 -51 47 -14 99 -29 115 -33 17 -4
89 -25 160 -45 72 -20 146 -41 166 -46 20 -4 97 -33 171 -63 181 -72 667 -229
914 -295 80 -21 177 -24 219 -7 21 9 52 14 69 11 140 -22 227 -29 366 -28 282
2 338 10 441 64 114 61 159 115 161 193 1 89 -65 163 -156 173 -38 5 -54 0
-113 -33 l-68 -38 -215 0 c-118 -1 -233 2 -255 6 -212 36 -227 37 -365 38
-107 1 -126 4 -265 46 -261 79 -456 145 -605 204 -80 32 -197 72 -260 90 -63
17 -216 60 -340 95 -124 35 -241 66 -260 70 -19 4 -51 14 -70 23 -19 8 -44 18
-55 23 -11 5 -66 29 -123 54 -56 25 -105 45 -108 45 -3 0 -60 27 -127 59 -67
32 -149 70 -182 84 -59 25 -364 121 -415 131 -14 3 -59 13 -100 22 -65 15
-140 18 -585 19 -479 1 -581 -3 -630 -24 -161 -71 -223 -127 -266 -239 -45
-120 -35 -271 27 -397 58 -118 221 -270 414 -384 69 -41 162 -96 206 -123 69
-41 123 -67 259 -127 31 -14 286 -117 440 -178 77 -30 149 -59 160 -64 40 -18
414 -148 540 -187 172 -55 357 -108 480 -138 55 -14 145 -38 200 -53 55 -16
141 -40 190 -54 50 -14 189 -55 309 -92 193 -58 321 -92 406 -109 14 -3 99
-25 190 -49 91 -25 185 -48 210 -52 25 -4 54 -9 65 -11 11 -2 34 -7 50 -10 17
-3 84 -16 150 -29 66 -13 167 -31 225 -40 58 -9 206 -34 330 -55 124 -22 275
-42 335 -45 61 -4 142 -13 180 -21 39 -7 87 -16 108 -19 20 -3 54 -8 75 -11
38 -6 314 -6 592 0 196 5 278 27 428 115 26 15 83 47 127 71 44 24 123 69 175
100 192 115 295 173 349 198 31 13 85 38 120 54 35 16 134 54 220 84 302 107
349 126 442 177 159 88 395 282 483 396 43 56 217 343 395 651 88 154 149 284
167 362 4 18 8 35 9 38 1 3 8 32 16 65 11 46 14 138 14 390 0 327 0 331 -28
440 -34 135 -49 179 -91 270 -31 68 -99 176 -129 206 -7 8 -19 23 -27 35 -50
72 -228 245 -325 317 -60 44 -164 124 -230 176 -66 53 -155 122 -197 154 -99
75 -187 170 -399 432 -152 188 -296 468 -372 725 -30 102 -94 363 -124 505 -3
17 -5 118 -3 225 3 204 3 285 1 640 -1 118 1 233 3 255 6 45 16 119 21 143 1
10 6 44 9 77 4 33 9 71 11 85 2 14 7 45 10 70 7 51 52 215 67 243 5 10 31 43
58 72 66 73 92 127 95 196 2 31 10 69 18 85 22 43 57 163 63 214 3 25 7 52 9
60 2 8 7 35 10 59 11 78 43 148 70 155 14 3 41 23 62 44 l38 38 695 -1 c606
-2 706 -4 780 -19 47 -9 94 -18 105 -19 11 -2 38 -12 60 -21 94 -42 200 -2
234 87 25 66 3 154 -48 195 -54 43 -158 83 -278 108 l-128 25 -565 1 c-1119 0
-1310 -3 -1394 -17 -43 -8 -95 -17 -115 -20 -20 -3 -46 -7 -56 -9 -11 -2 -42
-7 -70 -10 -60 -8 -103 -19 -210 -53 -63 -19 -408 -88 -600 -119 -16 -3 -104
-26 -195 -51 -91 -25 -228 -62 -305 -83 -77 -21 -170 -49 -206 -63 -37 -14
-104 -33 -150 -42 -178 -35 -743 -213 -1064 -335 -60 -23 -118 -43 -127 -46
-42 -10 -66 -14 -108 -20 -52 -8 -780 -8 -825 -1 -97 16 -184 29 -215 33 -19
2 -56 6 -82 9 -25 3 -77 11 -116 20 -38 8 -91 17 -118 20 -84 9 -106 13 -194
29 -47 8 -107 18 -135 21 -27 4 -58 8 -67 11 -9 3 -25 7 -35 9 -15 3 -320 67
-386 80 -33 7 -292 88 -322 100 -16 8 -55 23 -85 35 -30 11 -64 25 -75 30
-113 51 -341 135 -655 242 -244 83 -369 130 -477 179 -23 10 -44 19 -47 19 -2
0 -64 29 -138 64 -73 35 -176 81 -228 101 -97 38 -182 82 -235 121 -16 12 -60
38 -96 58 -108 57 -350 220 -406 273 -84 79 -164 110 -239 93z"/>
</g>
</svg>
