<svg width="2082" height="1312" xmlns="http://www.w3.org/2000/svg" xmlns:xlink="http://www.w3.org/1999/xlink" xml:space="preserve" overflow="hidden"><defs><clipPath id="clip0"><rect x="1135" y="534" width="2082" height="1312"/></clipPath></defs><g clip-path="url(#clip0)" transform="translate(-1135 -534)"><rect x="1137.5" y="536.5" width="2077" height="1307" stroke="#000000" stroke-width="4.58333" stroke-miterlimit="8" fill="#8FAADC"/><path d="M1399.5 1093.83C1399.5 1020.75 1747.37 961.5 2176.5 961.5 2605.62 961.5 2953.5 1020.75 2953.5 1093.83L2953.5 1623.17C2953.5 1696.25 2605.62 1755.5 2176.5 1755.5 1747.37 1755.5 1399.5 1696.25 1399.5 1623.17Z" fill="#FFFFFF" fill-rule="evenodd"/><path d="M2953.5 1093.83C2953.5 1166.92 2605.62 1226.17 2176.5 1226.17 1747.37 1226.17 1399.5 1166.92 1399.5 1093.83" stroke="#000000" stroke-width="4.58333" stroke-miterlimit="8" fill="none" fill-rule="evenodd"/><path d="M1399.5 1093.83C1399.5 1020.75 1747.37 961.5 2176.5 961.5 2605.62 961.5 2953.5 1020.75 2953.5 1093.83L2953.5 1623.17C2953.5 1696.25 2605.62 1755.5 2176.5 1755.5 1747.37 1755.5 1399.5 1696.25 1399.5 1623.17Z" stroke="#000000" stroke-width="4.58333" stroke-miterlimit="8" fill="none" fill-rule="evenodd"/><path d="M1984.5 783.5 2089 783.5 2089 648.5 2298 648.5 2298 783.5 2402.5 783.5 2193.5 918.5Z" stroke="#000000" stroke-width="6.875" stroke-miterlimit="8" fill-rule="evenodd"/><path d="M1969.5 1442C1969.5 1373.79 2068 1318.5 2189.5 1318.5 2311 1318.5 2409.5 1373.79 2409.5 1442 2409.5 1510.21 2311 1565.5 2189.5 1565.5 2068 1565.5 1969.5 1510.21 1969.5 1442Z" stroke="#2F528F" stroke-width="4.58333" stroke-miterlimit="8" fill="#FF0000" fill-rule="evenodd"/><path d="M2171.5 1358.5 2279.5 1448 2171.5 1537.5Z" stroke="#000000" stroke-width="4.58333" stroke-miterlimit="8" fill="#FFFFFF" fill-rule="evenodd"/></g></svg>