<svg width="2785" height="1883" xmlns="http://www.w3.org/2000/svg" xmlns:xlink="http://www.w3.org/1999/xlink" xml:space="preserve" overflow="hidden"><defs><clipPath id="clip0"><rect x="808" y="450" width="2785" height="1883"/></clipPath></defs><g clip-path="url(#clip0)" transform="translate(-808 -450)"><rect x="810.5" y="452.5" width="2780" height="1878" stroke="#41719C" stroke-width="4.58333" stroke-miterlimit="8" fill="#5B9BD5"/><path d="M1224.5 1303.17C1224.5 1218.85 1661.47 1150.5 2200.5 1150.5 2739.53 1150.5 3176.5 1218.85 3176.5 1303.17L3176.5 1913.83C3176.5 1998.15 2739.53 2066.5 2200.5 2066.5 1661.47 2066.5 1224.5 1998.15 1224.5 1913.83Z" fill="#FFFFFF" fill-rule="evenodd"/><path d="M3176.5 1303.17C3176.5 1387.48 2739.53 1455.83 2200.5 1455.83 1661.47 1455.83 1224.5 1387.48 1224.5 1303.17" stroke="#000000" stroke-width="4.58333" stroke-miterlimit="8" fill="none" fill-rule="evenodd"/><path d="M1224.5 1303.17C1224.5 1218.85 1661.47 1150.5 2200.5 1150.5 2739.53 1150.5 3176.5 1218.85 3176.5 1303.17L3176.5 1913.83C3176.5 1998.15 2739.53 2066.5 2200.5 2066.5 1661.47 2066.5 1224.5 1998.15 1224.5 1913.83Z" stroke="#000000" stroke-width="4.58333" stroke-miterlimit="8" fill="none" fill-rule="evenodd"/><path d="M1936.5 886 2068.5 886 2068.5 706.5 2332.5 706.5 2332.5 886 2464.5 886 2200.5 1065.5Z" stroke="#000000" stroke-width="6.875" stroke-miterlimit="8" fill-rule="evenodd"/><path d="M1883.5 1710.5C1883.5 1603.36 2025.43 1516.5 2200.5 1516.5 2375.57 1516.5 2517.5 1603.36 2517.5 1710.5 2517.5 1817.64 2375.57 1904.5 2200.5 1904.5 2025.43 1904.5 1883.5 1817.64 1883.5 1710.5Z" stroke="#2F528F" stroke-width="4.58333" stroke-miterlimit="8" fill="#FF0000" fill-rule="evenodd"/><path d="M2157.5 1570.5 2312.5 1710.5 2157.5 1850.5Z" stroke="#000000" stroke-width="4.58333" stroke-miterlimit="8" fill="#FFFFFF" fill-rule="evenodd"/></g></svg>