<svg width="2785" height="1883" xmlns="http://www.w3.org/2000/svg" xmlns:xlink="http://www.w3.org/1999/xlink" xml:space="preserve" overflow="hidden"><defs><clipPath id="clip0"><rect x="808" y="450" width="2785" height="1883"/></clipPath><clipPath id="clip1"><rect x="1728" y="636" width="1509" height="1509"/></clipPath><clipPath id="clip2"><rect x="1728" y="636" width="1509" height="1509"/></clipPath><clipPath id="clip3"><rect x="1728" y="636" width="1509" height="1509"/></clipPath></defs><g clip-path="url(#clip0)" transform="translate(-808 -450)"><rect x="810.5" y="452.5" width="2780" height="1878" stroke="#41719C" stroke-width="4.58333" stroke-miterlimit="8" fill="#5B9BD5"/><path d="M1705.5 1652.5 1705.5 1518.75 1523.5 1518.75 1523.5 1251.25 1705.5 1251.25 1705.5 1117.5 1887.5 1385Z" stroke="#000000" stroke-width="6.875" stroke-miterlimit="8" fill-rule="evenodd"/><g clip-path="url(#clip1)"><g clip-path="url(#clip2)"><g clip-path="url(#clip3)"><path d="M2921.83 919.75C2921.83 989.154 2724.91 1045.42 2482 1045.42 2239.09 1045.42 2042.17 989.154 2042.17 919.75 2042.17 850.346 2239.09 794.083 2482 794.083 2724.91 794.083 2921.83 850.346 2921.83 919.75Z" stroke="#000000" stroke-width="15.7084" fill="#FFFFFF"/><path d="M2796.17 1233.92C2777.32 1233.92 2764.75 1221.35 2764.75 1202.5 2764.75 1183.65 2777.32 1171.08 2796.17 1171.08 2815.02 1171.08 2827.58 1183.65 2827.58 1202.5 2827.58 1221.35 2815.02 1233.92 2796.17 1233.92ZM2482 1108.25C2240.09 1108.25 2042.17 1051.7 2042.17 982.583L2042.17 1233.92C2042.17 1303.03 2240.09 1359.58 2482 1359.58 2723.91 1359.58 2921.83 1303.03 2921.83 1233.92L2921.83 982.583C2921.83 1051.7 2723.91 1108.25 2482 1108.25Z" stroke="#000000" stroke-width="15.7084" fill="#FFFFFF"/><path d="M2796.17 1548.08C2777.32 1548.08 2764.75 1535.52 2764.75 1516.67 2764.75 1497.82 2777.32 1485.25 2796.17 1485.25 2815.02 1485.25 2827.58 1497.82 2827.58 1516.67 2827.58 1535.52 2815.02 1548.08 2796.17 1548.08ZM2482 1422.42C2240.09 1422.42 2042.17 1365.87 2042.17 1296.75L2042.17 1548.08C2042.17 1617.2 2240.09 1673.75 2482 1673.75 2723.91 1673.75 2921.83 1617.2 2921.83 1548.08L2921.83 1296.75C2921.83 1365.87 2723.91 1422.42 2482 1422.42Z" stroke="#000000" stroke-width="15.7084" fill="#FFFFFF"/><path d="M2796.17 1862.25C2777.32 1862.25 2764.75 1849.68 2764.75 1830.83 2764.75 1811.98 2777.32 1799.42 2796.17 1799.42 2815.02 1799.42 2827.58 1811.98 2827.58 1830.83 2827.58 1849.68 2815.02 1862.25 2796.17 1862.25ZM2482 1736.58C2240.09 1736.58 2042.17 1680.03 2042.17 1610.92L2042.17 1862.25C2042.17 1931.37 2240.09 1987.92 2482 1987.92 2723.91 1987.92 2921.83 1931.37 2921.83 1862.25L2921.83 1610.92C2921.83 1680.03 2723.91 1736.58 2482 1736.58Z" stroke="#000000" stroke-width="15.7084" fill="#FFFFFF"/></g></g></g><path d="M2046.5 919C2046.5 853.002 2241.7 799.5 2482.5 799.5 2723.3 799.5 2918.5 853.002 2918.5 919 2918.5 984.998 2723.3 1038.5 2482.5 1038.5 2241.7 1038.5 2046.5 984.998 2046.5 919Z" stroke="#000000" stroke-width="4.58333" stroke-miterlimit="8" fill="#FF0000" fill-rule="evenodd"/><path d="M2452.5 842.5 2575.5 919.5 2452.5 996.5Z" stroke="#000000" stroke-width="4.58333" stroke-miterlimit="8" fill="#FFFFFF" fill-rule="evenodd"/></g></svg>