<svg width="1820" height="1312" xmlns="http://www.w3.org/2000/svg" xmlns:xlink="http://www.w3.org/1999/xlink" xml:space="preserve" overflow="hidden"><defs><clipPath id="clip0"><rect x="1135" y="534" width="1820" height="1312"/></clipPath></defs><g clip-path="url(#clip0)" transform="translate(-1135 -534)"><rect x="1137.5" y="536.5" width="1815" height="1307" stroke="#000000" stroke-width="4.58333" stroke-miterlimit="8" fill="#8FAADC"/><path d="M1399.5 1093.83C1399.5 1020.75 1691.63 961.5 2052 961.5 2412.37 961.5 2704.5 1020.75 2704.5 1093.83L2704.5 1623.17C2704.5 1696.25 2412.37 1755.5 2052 1755.5 1691.63 1755.5 1399.5 1696.25 1399.5 1623.17Z" fill="#FFFFFF" fill-rule="evenodd"/><path d="M2704.5 1093.83C2704.5 1166.92 2412.37 1226.17 2052 1226.17 1691.63 1226.17 1399.5 1166.92 1399.5 1093.83" stroke="#000000" stroke-width="4.58333" stroke-miterlimit="8" fill="none" fill-rule="evenodd"/><path d="M1399.5 1093.83C1399.5 1020.75 1691.63 961.5 2052 961.5 2412.37 961.5 2704.5 1020.75 2704.5 1093.83L2704.5 1623.17C2704.5 1696.25 2412.37 1755.5 2052 1755.5 1691.63 1755.5 1399.5 1696.25 1399.5 1623.17Z" stroke="#000000" stroke-width="4.58333" stroke-miterlimit="8" fill="none" fill-rule="evenodd"/><path d="M1843.5 774 1947.75 774 1947.75 638.5 2156.25 638.5 2156.25 774 2260.5 774 2052 909.5Z" stroke="#000000" stroke-width="6.875" stroke-miterlimit="8" fill-rule="evenodd"/><path d="M1820.5 1442C1820.5 1373.79 1919 1318.5 2040.5 1318.5 2162 1318.5 2260.5 1373.79 2260.5 1442 2260.5 1510.21 2162 1565.5 2040.5 1565.5 1919 1565.5 1820.5 1510.21 1820.5 1442Z" stroke="#2F528F" stroke-width="4.58333" stroke-miterlimit="8" fill="#FF0000" fill-rule="evenodd"/><path d="M2017.5 1352.5 2124.5 1442 2017.5 1531.5Z" stroke="#000000" stroke-width="4.58333" stroke-miterlimit="8" fill="#FFFFFF" fill-rule="evenodd"/></g></svg>