<svg width="2785" height="1883" xmlns="http://www.w3.org/2000/svg" xmlns:xlink="http://www.w3.org/1999/xlink" xml:space="preserve" overflow="hidden"><defs><clipPath id="clip0"><rect x="808" y="450" width="2785" height="1883"/></clipPath></defs><g clip-path="url(#clip0)" transform="translate(-808 -450)"><rect x="810.5" y="452.5" width="2780" height="1878" stroke="#41719C" stroke-width="4.58333" stroke-miterlimit="8" fill="#5B9BD5"/><path d="M1262.5 1321.83C1262.5 1239.36 1682.46 1172.5 2200.5 1172.5 2718.54 1172.5 3138.5 1239.36 3138.5 1321.83L3138.5 1919.17C3138.5 2001.64 2718.54 2068.5 2200.5 2068.5 1682.46 2068.5 1262.5 2001.64 1262.5 1919.17Z" fill="#FFFFFF" fill-rule="evenodd"/><path d="M3138.5 1321.83C3138.5 1404.31 2718.54 1471.17 2200.5 1471.17 1682.46 1471.17 1262.5 1404.31 1262.5 1321.83" stroke="#000000" stroke-width="4.58333" stroke-miterlimit="8" fill="none" fill-rule="evenodd"/><path d="M1262.5 1321.83C1262.5 1239.36 1682.46 1172.5 2200.5 1172.5 2718.54 1172.5 3138.5 1239.36 3138.5 1321.83L3138.5 1919.17C3138.5 2001.64 2718.54 2068.5 2200.5 2068.5 1682.46 2068.5 1262.5 2001.64 1262.5 1919.17Z" stroke="#000000" stroke-width="4.58333" stroke-miterlimit="8" fill="none" fill-rule="evenodd"/><path d="M1951.5 910.5 2076 910.5 2076 739.5 2325 739.5 2325 910.5 2449.5 910.5 2200.5 1081.5Z" stroke="#000000" stroke-width="6.875" stroke-miterlimit="8" fill-rule="evenodd"/><path d="M1944.5 1765.5C1944.5 1685.42 2059.12 1620.5 2200.5 1620.5 2341.88 1620.5 2456.5 1685.42 2456.5 1765.5 2456.5 1845.58 2341.88 1910.5 2200.5 1910.5 2059.12 1910.5 1944.5 1845.58 1944.5 1765.5Z" stroke="#2F528F" stroke-width="4.58333" stroke-miterlimit="8" fill="#FF0000" fill-rule="evenodd"/><path d="M2165.5 1660.5 2290.5 1765.5 2165.5 1870.5Z" stroke="#000000" stroke-width="4.58333" stroke-miterlimit="8" fill="#FFFFFF" fill-rule="evenodd"/></g></svg>