<svg width="2785" height="1883" xmlns="http://www.w3.org/2000/svg" xmlns:xlink="http://www.w3.org/1999/xlink" xml:space="preserve" overflow="hidden"><defs><clipPath id="clip0"><rect x="808" y="450" width="2785" height="1883"/></clipPath><clipPath id="clip1"><rect x="1655" y="585" width="1751" height="1560"/></clipPath><clipPath id="clip2"><rect x="1655" y="585" width="1751" height="1560"/></clipPath><clipPath id="clip3"><rect x="1655" y="585" width="1751" height="1560"/></clipPath></defs><g clip-path="url(#clip0)" transform="translate(-808 -450)"><rect x="810.5" y="452.5" width="2780" height="1878" stroke="#41719C" stroke-width="4.58333" stroke-miterlimit="8" fill="#5B9BD5"/><path d="M1656.5 1633.5 1656.5 1499.5 1474.5 1499.5 1474.5 1231.5 1656.5 1231.5 1656.5 1097.5 1838.5 1365.5Z" stroke="#000000" stroke-width="6.875" stroke-miterlimit="8" fill-rule="evenodd"/><g clip-path="url(#clip1)"><g clip-path="url(#clip2)"><g clip-path="url(#clip3)"><path d="M1235 292.5C1235 364.297 1031.29 422.5 780 422.5 528.71 422.5 325 364.297 325 292.5 325 220.703 528.71 162.5 780 162.5 1031.29 162.5 1235 220.703 1235 292.5Z" stroke="#000000" stroke-width="16.2501" fill="#FFFFFF" transform="matrix(1.12179 0 0 1 1656 585)"/><path d="M1105 617.5C1085.5 617.5 1072.5 604.5 1072.5 585 1072.5 565.5 1085.5 552.5 1105 552.5 1124.5 552.5 1137.5 565.5 1137.5 585 1137.5 604.5 1124.5 617.5 1105 617.5ZM780 487.5C529.75 487.5 325 429 325 357.5L325 617.5C325 689 529.75 747.5 780 747.5 1030.25 747.5 1235 689 1235 617.5L1235 357.5C1235 429 1030.25 487.5 780 487.5Z" stroke="#000000" stroke-width="16.2501" fill="#FFFFFF" transform="matrix(1.12179 0 0 1 1656 585)"/><path d="M1105 942.5C1085.5 942.5 1072.5 929.5 1072.5 910 1072.5 890.5 1085.5 877.5 1105 877.5 1124.5 877.5 1137.5 890.5 1137.5 910 1137.5 929.5 1124.5 942.5 1105 942.5ZM780 812.5C529.75 812.5 325 754 325 682.5L325 942.5C325 1014 529.75 1072.5 780 1072.5 1030.25 1072.5 1235 1014 1235 942.5L1235 682.5C1235 754 1030.25 812.5 780 812.5Z" stroke="#000000" stroke-width="16.2501" fill="#FFFFFF" transform="matrix(1.12179 0 0 1 1656 585)"/><path d="M1105 1267.5C1085.5 1267.5 1072.5 1254.5 1072.5 1235 1072.5 1215.5 1085.5 1202.5 1105 1202.5 1124.5 1202.5 1137.5 1215.5 1137.5 1235 1137.5 1254.5 1124.5 1267.5 1105 1267.5ZM780 1137.5C529.75 1137.5 325 1079 325 1007.5L325 1267.5C325 1339 529.75 1397.5 780 1397.5 1030.25 1397.5 1235 1339 1235 1267.5L1235 1007.5C1235 1079 1030.25 1137.5 780 1137.5Z" stroke="#000000" stroke-width="16.2501" fill="#FFFFFF" transform="matrix(1.12179 0 0 1 1656 585)"/></g></g></g><path d="M2025.5 877C2025.5 808.793 2251.82 753.5 2531 753.5 2810.18 753.5 3036.5 808.793 3036.5 877 3036.5 945.207 2810.18 1000.5 2531 1000.5 2251.82 1000.5 2025.5 945.207 2025.5 877Z" stroke="#000000" stroke-width="4.58333" stroke-miterlimit="8" fill="#FF0000" fill-rule="evenodd"/><path d="M2496.5 797.5 2639.5 877 2496.5 956.5Z" stroke="#000000" stroke-width="4.58333" stroke-miterlimit="8" fill="#FFFFFF" fill-rule="evenodd"/></g></svg>