<svg width="2783" height="1882" xmlns="http://www.w3.org/2000/svg" xmlns:xlink="http://www.w3.org/1999/xlink" xml:space="preserve" overflow="hidden"><g transform="translate(-836 -238)"><rect x="837.5" y="239.5" width="2780" height="1879" stroke="#000000" stroke-width="3.4375" stroke-linejoin="round" stroke-miterlimit="10" fill="none"/><g><g><g><path d="M468 780C439.281 780 416 803.28 416 832 416 860.719 439.281 884 468 884 496.719 884 520 860.719 520 832 520 803.28 496.719 780 468 780Z" fill="#0F0F0F" transform="matrix(1 0 0 1 1601 553)"/><path d="M728 832C728 803.28 751.28 780 780 780 808.719 780 832 803.28 832 832 832 860.719 808.719 884 780 884 751.28 884 728 860.719 728 832Z" fill="#0F0F0F" transform="matrix(1 0 0 1 1601 553)"/><path d="M624 52C566.561 52 520 98.5623 520 156 520 194.495 540.914 228.105 572 246.087L572 364 312 364C225.844 364 156 433.844 156 520L156 1040C156 1126.16 225.844 1196 312 1196L936 1196C1022.16 1196 1092 1126.16 1092 1040L1092 520C1092 433.844 1022.16 364 936 364L676 364 676 246.087C707.086 228.105 728 194.495 728 156 728 98.5623 681.439 52 624 52ZM260 520C260 491.281 283.281 468 312 468L383.862 468 459.117 618.509C476.734 653.744 512.745 676 552.136 676L695.864 676C735.254 676 771.264 653.744 788.881 618.509L864.136 468 936 468C964.719 468 988 491.281 988 520L988 1040C988 1068.72 964.719 1092 936 1092L312 1092C283.281 1092 260 1068.72 260 1040L260 520ZM695.864 572 747.864 468 500.137 468 552.136 572 695.864 572Z" fill="#0F0F0F" fill-rule="evenodd" transform="matrix(1 0 0 1 1601 553)"/><path d="M52 728C23.2812 728 0 751.28 0 780L0 884C0 912.719 23.2812 936 52 936 80.7185 936 104 912.719 104 884L104 780C104 751.28 80.7185 728 52 728Z" fill="#0F0F0F" transform="matrix(1 0 0 1 1601 553)"/><path d="M1144 780C1144 751.28 1167.28 728 1196 728 1224.72 728 1248 751.28 1248 780L1248 884C1248 912.719 1224.72 936 1196 936 1167.28 936 1144 912.719 1144 884L1144 780Z" fill="#0F0F0F" transform="matrix(1 0 0 1 1601 553)"/></g></g></g><path d="M1983 1331.33C1983 1317.34 1994.34 1306 2008.33 1306L2433.67 1306C2447.66 1306 2459 1317.34 2459 1331.33L2459 1432.67C2459 1446.66 2447.66 1458 2433.67 1458L2008.33 1458C1994.34 1458 1983 1446.66 1983 1432.67Z" stroke="#000000" stroke-width="13.75" stroke-miterlimit="8" fill="#2F5597" fill-rule="evenodd"/></g></svg>