<svg width="2785" height="1883" xmlns="http://www.w3.org/2000/svg" xmlns:xlink="http://www.w3.org/1999/xlink" xml:space="preserve" overflow="hidden"><defs><clipPath id="clip0"><rect x="808" y="463" width="2785" height="1883"/></clipPath><clipPath id="clip1"><path d="M1536.13 2293.33 1043.5 1470.68 1866.15 978.061 2358.77 1800.71Z" fill-rule="evenodd" clip-rule="evenodd"/></clipPath><clipPath id="clip2"><path d="M1536.13 2293.33 1043.5 1470.68 1866.15 978.061 2358.77 1800.71Z" fill-rule="evenodd" clip-rule="evenodd"/></clipPath><clipPath id="clip3"><path d="M1536.13 2293.33 1043.5 1470.68 1866.15 978.061 2358.77 1800.71Z" fill-rule="evenodd" clip-rule="evenodd"/></clipPath></defs><g clip-path="url(#clip0)" transform="translate(-808 -463)"><rect x="810.5" y="465.5" width="2780" height="1878" stroke="#787878" stroke-width="4.58333" stroke-miterlimit="8" fill="#C48A86"/><g clip-path="url(#clip1)"><g clip-path="url(#clip2)"><g clip-path="url(#clip3)"><path d="M1390.62 1329.29C1386.92 1331.86 1385.39 1336.58 1386.9 1340.83L1422.69 1442.48C1423.78 1445.65 1426.41 1448.05 1429.67 1448.84L1447.86 1453.41 1382.7 1718.85C1371.5 1753.67 1389.2 1791.22 1423.19 1804.73L1673.62 1900.35C1674.7 1902.34 1675.74 1904.35 1676.92 1906.32 1728.01 1991.41 1838.33 2019.09 1923.54 1968.2L2104.35 1859.93C2120.38 1877.41 2146.49 1881.22 2166.86 1869.06L2209.71 1843.4 1983.92 1466.36 1941.08 1492.01C1920.61 1504.35 1911.73 1529.45 1919.9 1551.92L1738.8 1659.71 1738.8 1659.71C1704.37 1680.38 1677.91 1712.06 1663.72 1749.63L1517.79 1726.59C1514.83 1710.89 1506.49 1696.72 1494.2 1686.52L1544.77 1477.73 1564.71 1482.74C1567.94 1483.55 1571.36 1482.7 1573.83 1480.47L1654.88 1408.13C1658.27 1405.1 1659.19 1400.17 1657.11 1396.13L1608.75 1301.62 1608.4 1301.03C1605.72 1296.21 1599.64 1294.47 1594.81 1297.15 1589.99 1299.83 1588.25 1305.91 1590.93 1310.74L1635.79 1398.39 1564.43 1462.07 1439.75 1430.79 1408.26 1341.38 1489.27 1285.24C1493.73 1282.06 1494.85 1275.9 1491.79 1271.34 1488.67 1266.8 1482.45 1265.64 1477.91 1268.76 1477.89 1268.77 1477.88 1268.78 1477.86 1268.79ZM1951.34 1509.15 1977.05 1493.76 2182.31 1836.53 2156.6 1851.92C2142.4 1860.43 2124 1855.81 2115.5 1841.61L1941.03 1550.26C1932.52 1536.06 1937.14 1517.66 1951.34 1509.15ZM1749.07 1676.85 1929.31 1569.57 2093.23 1843.3 1913.27 1951.06C1844.21 1992.27 1755.29 1975.78 1705.6 1912.54L1753.23 1930.7C1796.59 1945.75 1843.94 1922.8 1858.99 1879.43 1867.05 1856.2 1864.41 1830.59 1851.78 1809.5 1851.16 1808.46 1850.53 1807.41 1849.83 1806.41 1836.96 1786.97 1816.54 1773.82 1793.51 1770.15L1683.81 1752.82C1696.79 1721.12 1719.68 1694.46 1749.07 1676.85ZM1790.37 1789.86C1807.9 1792.55 1823.46 1802.57 1833.16 1817.42 1843.11 1832.13 1846.22 1850.41 1841.72 1867.57 1833.25 1901.39 1798.97 1921.95 1765.15 1913.48 1763.42 1913.05 1761.71 1912.54 1760.03 1911.96L1477.35 1804.15C1477.23 1804.1 1477.26 1804 1477.35 1803.97 1500.53 1794 1516.39 1772.14 1518.68 1747.02ZM1480.27 1779.11C1458.66 1796.24 1427.24 1792.61 1410.11 1770.99 1392.98 1749.38 1396.61 1717.97 1418.23 1700.83 1439.85 1683.7 1471.26 1687.33 1488.39 1708.95 1491.09 1712.36 1493.34 1716.12 1495.07 1720.11 1504.04 1740.86 1497.97 1765.05 1480.27 1779.11ZM1412.7 1680.19 1467.11 1458.73 1525.26 1473.32 1476.29 1675.61C1456.13 1667.08 1433.13 1668.51 1414.18 1679.47 1413.92 1679.63 1413.32 1679.98 1412.86 1680.26 1412.71 1680.35 1412.69 1680.36 1412.7 1680.19Z"/><path d="M1753.74 1876.21C1769.24 1881.99 1786.5 1874.11 1792.29 1858.61 1798.07 1843.11 1790.2 1825.85 1774.69 1820.06 1773.65 1819.67 1772.59 1819.34 1771.52 1819.07L1771.52 1819.07C1755.47 1815.01 1739.17 1824.72 1735.11 1840.76 1731.35 1855.6 1739.38 1870.89 1753.74 1876.21ZM1766.66 1838.44 1766.66 1838.44C1771.93 1839.89 1775.13 1845.22 1773.91 1850.55 1772.57 1855.9 1767.15 1859.15 1761.8 1857.81 1756.45 1856.46 1753.2 1851.04 1754.54 1845.69 1755.88 1840.34 1761.3 1837.09 1766.66 1838.43 1766.66 1838.43 1766.66 1838.43 1766.66 1838.43Z"/><path d="M1425.71 1748.36C1430.34 1761.35 1444.63 1768.12 1457.62 1763.48 1470.61 1758.85 1477.38 1744.56 1472.74 1731.57 1468.11 1718.58 1453.82 1711.81 1440.83 1716.45 1437.74 1717.55 1434.89 1719.26 1432.46 1721.46 1424.98 1728.24 1422.32 1738.85 1425.71 1748.36ZM1453.53 1737.4C1454.94 1739.77 1454.17 1742.84 1451.81 1744.25 1449.44 1745.67 1446.37 1744.9 1444.96 1742.53 1443.54 1740.17 1444.31 1737.1 1446.68 1735.68 1449.04 1734.27 1452.11 1735.04 1453.53 1737.4Z"/></g></g></g><path d="M1746.5 1425.5C1746.5 1135 2001.92 899.5 2317 899.5 2579.34 899.5 2841.68 832.957 3104.02 699.872 2959.67 941.748 2887.5 1183.62 2887.5 1425.5 2887.5 1716 2632.08 1951.5 2317 1951.5 2001.92 1951.5 1746.5 1716 1746.5 1425.5Z" stroke="#000000" stroke-width="4.58333" stroke-miterlimit="8" fill="#FFFFFF" fill-rule="evenodd"/><path d="M2642.05 1030.06 2720.15 1181.25 2159.85 1470.68 2081.75 1319.49Z" fill="#FF0000" fill-rule="evenodd"/><path d="M2557.7 1258.93 2635.8 1410.12 2075.49 1699.55 1997.39 1548.36Z" fill="#FF0000" fill-rule="evenodd"/><path d="M2279.5 1259.5 2491.5 1386 2279.5 1512.5Z" stroke="#000000" stroke-width="4.58333" stroke-miterlimit="8" fill="#FFFFFF" fill-rule="evenodd"/></g></svg>