<svg width="2785" height="1883" xmlns="http://www.w3.org/2000/svg" xmlns:xlink="http://www.w3.org/1999/xlink" xml:space="preserve" overflow="hidden"><defs><clipPath id="clip0"><rect x="808" y="463" width="2785" height="1883"/></clipPath></defs><g clip-path="url(#clip0)" transform="translate(-808 -463)"><rect x="810.5" y="465.5" width="2780" height="1878" stroke="#787878" stroke-width="4.58333" stroke-miterlimit="8" fill="#C48A86"/><rect x="2115.5" y="1919.5" width="111" height="284" stroke="#000000" stroke-width="4.58333" stroke-miterlimit="8" fill="#FFFFFF"/><path d="M1592.5 1462C1592.5 1171.77 1847.92 936.5 2163 936.5 2425.34 936.5 2687.68 870.02 2950.02 737.062 2805.67 978.708 2733.5 1220.35 2733.5 1462 2733.5 1752.23 2478.08 1987.5 2163 1987.5 1847.92 1987.5 1592.5 1752.23 1592.5 1462Z" stroke="#000000" stroke-width="4.58333" stroke-miterlimit="8" fill="#FFFFFF" fill-rule="evenodd"/><path d="M2483.28 1069.27 2561.38 1220.46 2001.07 1509.9 1922.97 1358.71Z" fill="#FF0000" fill-rule="evenodd"/><path d="M2398.93 1298.14 2477.03 1449.33 1916.72 1738.76 1838.62 1587.57Z" fill="#FF0000" fill-rule="evenodd"/><path d="M2120.5 1298.5 2333.5 1425 2120.5 1551.5Z" stroke="#000000" stroke-width="4.58333" stroke-miterlimit="8" fill="#FFFFFF" fill-rule="evenodd"/></g></svg>