<svg width="2785" height="1883" xmlns="http://www.w3.org/2000/svg" xmlns:xlink="http://www.w3.org/1999/xlink" xml:space="preserve" overflow="hidden"><defs><clipPath id="clip0"><rect x="808" y="463" width="2785" height="1883"/></clipPath><clipPath id="clip1"><path d="M1377.35 2299.56 884.73 1476.91 1707.38 984.288 2200 1806.94Z" fill-rule="evenodd" clip-rule="evenodd"/></clipPath><clipPath id="clip2"><path d="M1377.35 2299.56 884.73 1476.91 1707.38 984.288 2200 1806.94Z" fill-rule="evenodd" clip-rule="evenodd"/></clipPath><clipPath id="clip3"><path d="M1377.35 2299.56 884.73 1476.91 1707.38 984.288 2200 1806.94Z" fill-rule="evenodd" clip-rule="evenodd"/></clipPath></defs><g clip-path="url(#clip0)" transform="translate(-808 -463)"><rect x="810.5" y="465.5" width="2780" height="1878" stroke="#787878" stroke-width="4.58333" stroke-miterlimit="8" fill="#C48A86"/><g clip-path="url(#clip1)"><g clip-path="url(#clip2)"><g clip-path="url(#clip3)"><path d="M1231.84 1335.52C1228.14 1338.08 1226.62 1342.81 1228.12 1347.06L1263.92 1448.7C1265 1451.88 1267.63 1454.28 1270.9 1455.07L1289.09 1459.64 1223.93 1725.07C1212.73 1759.9 1230.43 1797.44 1264.42 1810.96L1514.85 1906.57C1515.93 1908.57 1516.97 1910.58 1518.15 1912.55 1569.24 1997.64 1679.56 2025.32 1764.76 1974.43L1945.57 1866.16C1961.61 1883.64 1987.72 1887.45 2008.09 1875.29L2050.94 1849.63 1825.15 1472.58 1782.3 1498.24C1761.83 1510.58 1752.96 1535.68 1761.13 1558.14L1580.03 1665.94 1580.03 1665.94C1545.59 1686.6 1519.14 1718.29 1504.95 1755.86L1359.01 1732.81C1356.05 1717.12 1347.71 1702.95 1335.43 1692.74L1385.99 1483.95 1405.93 1488.96C1409.16 1489.78 1412.58 1488.93 1415.06 1486.7L1496.11 1414.36C1499.5 1411.33 1500.41 1406.4 1498.34 1402.36L1449.98 1307.84 1449.63 1307.26C1446.95 1302.44 1440.86 1300.7 1436.04 1303.38 1431.21 1306.06 1429.47 1312.14 1432.15 1316.97L1477.01 1404.61 1405.66 1468.3 1280.98 1437.02 1249.49 1347.6 1330.49 1291.47C1334.96 1288.29 1336.08 1282.12 1333.02 1277.57 1329.9 1273.02 1323.68 1271.87 1319.13 1274.99 1319.12 1275 1319.1 1275.01 1319.09 1275.02ZM1792.57 1515.38 1818.27 1499.99 2023.53 1842.76 1997.83 1858.15C1983.63 1866.65 1965.23 1862.03 1956.72 1847.84L1782.25 1556.48C1773.75 1542.28 1778.37 1523.88 1792.57 1515.38ZM1590.29 1683.08 1770.53 1575.79 1934.45 1849.53 1754.5 1957.29C1685.44 1998.5 1596.51 1982.01 1546.82 1918.77L1594.45 1936.93C1637.82 1951.98 1685.17 1929.02 1700.22 1885.66 1708.28 1862.43 1705.64 1836.82 1693.01 1815.72 1692.39 1814.68 1691.76 1813.64 1691.06 1812.64 1678.19 1793.2 1657.76 1780.05 1634.74 1776.37L1525.03 1759.05C1538.01 1727.34 1560.91 1700.69 1590.29 1683.08ZM1631.6 1796.09C1649.13 1798.78 1664.69 1808.8 1674.39 1823.65 1684.33 1838.35 1687.45 1856.63 1682.94 1873.8 1674.48 1907.62 1640.2 1928.17 1606.38 1919.71 1604.65 1919.27 1602.94 1918.77 1601.25 1918.19L1318.58 1810.38C1318.45 1810.33 1318.49 1810.23 1318.57 1810.2 1341.75 1800.23 1357.61 1778.37 1359.91 1753.24ZM1321.5 1785.34C1299.88 1802.47 1268.47 1798.83 1251.34 1777.22 1234.21 1755.6 1237.84 1724.19 1259.46 1707.06 1281.07 1689.93 1312.48 1693.56 1329.62 1715.18 1332.32 1718.59 1334.57 1722.34 1336.3 1726.34 1345.27 1747.09 1339.2 1771.28 1321.5 1785.34ZM1253.93 1686.42 1308.33 1464.96 1366.49 1479.54 1317.52 1681.83C1297.35 1673.31 1274.36 1674.74 1255.41 1685.7 1255.15 1685.85 1254.55 1686.21 1254.09 1686.49 1253.93 1686.58 1253.91 1686.59 1253.93 1686.42Z"/><path d="M1594.96 1882.43C1610.47 1888.22 1627.73 1880.34 1633.51 1864.84 1639.3 1849.33 1631.42 1832.07 1615.92 1826.29 1614.88 1825.9 1613.82 1825.57 1612.74 1825.3L1612.74 1825.3C1596.7 1821.23 1580.4 1830.94 1576.34 1846.99 1572.58 1861.83 1580.61 1877.12 1594.97 1882.44ZM1607.89 1844.67 1607.89 1844.67C1613.16 1846.11 1616.35 1851.45 1615.14 1856.77 1613.8 1862.12 1608.37 1865.37 1603.02 1864.03 1597.67 1862.69 1594.42 1857.27 1595.76 1851.92 1597.11 1846.56 1602.53 1843.31 1607.88 1844.66 1607.88 1844.66 1607.88 1844.66 1607.89 1844.66Z"/><path d="M1266.93 1754.58C1271.57 1767.57 1285.86 1774.34 1298.84 1769.71 1311.83 1765.07 1318.61 1750.79 1313.97 1737.8 1309.33 1724.81 1295.05 1718.04 1282.06 1722.67 1278.96 1723.78 1276.12 1725.48 1273.68 1727.69 1266.2 1734.47 1263.54 1745.08 1266.93 1754.58ZM1294.75 1743.63C1296.17 1746 1295.4 1749.06 1293.03 1750.48 1290.67 1751.9 1287.6 1751.13 1286.18 1748.76 1284.77 1746.4 1285.54 1743.33 1287.9 1741.91 1290.27 1740.49 1293.34 1741.26 1294.75 1743.63Z"/></g></g></g><path d="M1587.5 1432.5C1587.5 1142 1842.92 906.5 2158 906.5 2420.34 906.5 2682.68 839.957 2945.02 706.872 2800.67 948.748 2728.5 1190.62 2728.5 1432.5 2728.5 1723 2473.08 1958.5 2158 1958.5 1842.92 1958.5 1587.5 1723 1587.5 1432.5Z" stroke="#000000" stroke-width="4.58333" stroke-miterlimit="8" fill="#FFFFFF" fill-rule="evenodd"/><path d="M2483.28 1036.29 2561.38 1187.48 2001.07 1476.91 1922.97 1325.72Z" fill="#FF0000" fill-rule="evenodd"/><path d="M2398.93 1265.15 2477.03 1416.34 1916.72 1705.78 1838.62 1554.59Z" fill="#FF0000" fill-rule="evenodd"/><path d="M2120.5 1265.5 2333.5 1392 2120.5 1518.5Z" stroke="#000000" stroke-width="4.58333" stroke-miterlimit="8" fill="#FFFFFF" fill-rule="evenodd"/></g></svg>