<svg width="808" height="547" xmlns="http://www.w3.org/2000/svg" xmlns:xlink="http://www.w3.org/1999/xlink" xml:space="preserve" overflow="hidden"><defs><clipPath id="clip0"><rect x="236" y="135" width="808" height="547"/></clipPath><clipPath id="clip1"><rect x="395" y="162" width="489" height="490"/></clipPath><clipPath id="clip2"><rect x="395" y="162" width="489" height="490"/></clipPath><clipPath id="clip3"><rect x="395" y="162" width="489" height="490"/></clipPath><clipPath id="clip4"><rect x="290" y="54" width="699" height="701"/></clipPath><clipPath id="clip5"><path d="M290.237 404.553 639.302 54.5571 988.358 404.553 639.302 754.541Z" fill-rule="evenodd" clip-rule="evenodd"/></clipPath><clipPath id="clip6"><path d="M290.237 404.553 639.302 54.5571 988.358 404.553 639.302 754.541Z" fill-rule="evenodd" clip-rule="evenodd"/></clipPath><clipPath id="clip7"><path d="M290.237 404.553 639.302 54.5571 988.358 404.553 639.302 754.541Z" fill-rule="evenodd" clip-rule="evenodd"/></clipPath></defs><g clip-path="url(#clip0)" transform="translate(-236 -135)"><path d="M142.627 53.9279 949.315 53.9279 949.315 598.455 142.627 598.455Z" stroke="#787878" stroke-width="1.20277" stroke-miterlimit="8" fill="#A5A5A5" transform="matrix(1 0 0 1.00213 94.0292 81.6149)"/><g clip-path="url(#clip1)"><g clip-path="url(#clip2)"><g clip-path="url(#clip3)"><g clip-path="url(#clip4)"><g clip-path="url(#clip5)"><g clip-path="url(#clip6)"><g clip-path="url(#clip7)"><path d="M1853.06 2858.62 1878.51 2833.17 1893.05 2847.71 1867.61 2873.16Z" fill="#215968" fill-opacity="0.89804" transform="matrix(1 0 0 1.00267 -1402.83 -2374.19)"/><path d="M1823.96 2829.52 1849.42 2804.07 1863.97 2818.63 1838.51 2844.09Z" fill="#215968" fill-opacity="0.89804" transform="matrix(1 0 0 1.00267 -1402.83 -2374.19)"/><path d="M1882.14 2887.7 1907.6 2862.25 1922.15 2876.81 1896.69 2902.27Z" fill="#215968" fill-opacity="0.89804" transform="matrix(1 0 0 1.00267 -1402.83 -2374.19)"/><path d="M1969.41 2974.98 1994.87 2949.53 2009.4 2964.07 1983.96 2989.52Z" fill="#215968" fill-opacity="0.89804" transform="matrix(1 0 0 1.00267 -1402.83 -2374.19)"/><path d="M1940.32 2945.88 1965.78 2920.43 1980.32 2934.96 1954.86 2960.44Z" fill="#215968" fill-opacity="0.89804" transform="matrix(1 0 0 1.00267 -1402.83 -2374.19)"/><path d="M1911.23 2916.8 1936.69 2891.35 1951.23 2905.89 1925.78 2931.34Z" fill="#215968" fill-opacity="0.89804" transform="matrix(1 0 0 1.00267 -1402.83 -2374.19)"/><path d="M2191.2 2695 2216.66 2669.55 2231.21 2684.09 2205.75 2709.54Z" fill="#215968" fill-opacity="0.89804" transform="matrix(1 0 0 1.00267 -1402.83 -2374.19)"/><path d="M2220.3 2724.08 2245.75 2698.63 2260.29 2713.19 2234.85 2738.62Z" fill="#215968" fill-opacity="0.89804" transform="matrix(1 0 0 1.00267 -1402.83 -2374.19)"/><path d="M2162.12 2665.93 2187.58 2640.45 2202.12 2655.01 2176.67 2680.44Z" fill="#215968" fill-opacity="0.89804" transform="matrix(1 0 0 1.00267 -1402.83 -2374.19)"/><path d="M2074.85 2578.65 2100.31 2553.19 2114.86 2567.74 2089.4 2593.19Z" fill="#215968" fill-opacity="0.89804" transform="matrix(1 0 0 1.00267 -1402.83 -2374.19)"/><path d="M2133.03 2636.82 2158.49 2611.37 2173.03 2625.91 2147.58 2651.36Z" fill="#215968" fill-opacity="0.89804" transform="matrix(1 0 0 1.00267 -1402.83 -2374.19)"/><path d="M2103.95 2607.73 2129.39 2582.28 2143.94 2596.83 2118.49 2622.28Z" fill="#215968" fill-opacity="0.89804" transform="matrix(1 0 0 1.00267 -1402.83 -2374.19)"/><path d="M1911.23 2625.91 1925.78 2611.37 1951.23 2636.82 1936.69 2651.36Z" fill="#215968" fill-opacity="0.89804" transform="matrix(1 0 0 1.00267 -1402.83 -2374.19)"/><path d="M1969.41 2567.74 1983.96 2553.19 2009.4 2578.65 1994.87 2593.19Z" fill="#215968" fill-opacity="0.89804" transform="matrix(1 0 0 1.00267 -1402.83 -2374.19)"/><path d="M1940.32 2596.83 1954.86 2582.28 1980.32 2607.73 1965.78 2622.28Z" fill="#215968" fill-opacity="0.89804" transform="matrix(1 0 0 1.00267 -1402.83 -2374.19)"/><path d="M1882.14 2655.01 1896.69 2640.45 1922.15 2665.93 1907.6 2680.44Z" fill="#215968" fill-opacity="0.89804" transform="matrix(1 0 0 1.00267 -1402.83 -2374.19)"/><path d="M1823.96 2713.19 1838.51 2698.63 1863.97 2724.08 1849.42 2738.62Z" fill="#215968" fill-opacity="0.89804" transform="matrix(1 0 0 1.00267 -1402.83 -2374.19)"/><path d="M1853.06 2684.09 1867.61 2669.55 1893.05 2695 1878.51 2709.54Z" fill="#215968" fill-opacity="0.89804" transform="matrix(1 0 0 1.00267 -1402.83 -2374.19)"/><path d="M2103.95 2934.96 2118.49 2920.43 2143.94 2945.88 2129.39 2960.44Z" fill="#215968" fill-opacity="0.89804" transform="matrix(1 0 0 1.00267 -1402.83 -2374.19)"/><path d="M2074.85 2964.07 2089.4 2949.53 2114.86 2974.98 2100.31 2989.52Z" fill="#215968" fill-opacity="0.89804" transform="matrix(1 0 0 1.00267 -1402.83 -2374.19)"/><path d="M2133.03 2905.89 2147.58 2891.35 2173.03 2916.8 2158.49 2931.34Z" fill="#215968" fill-opacity="0.89804" transform="matrix(1 0 0 1.00267 -1402.83 -2374.19)"/><path d="M2162.12 2876.81 2176.67 2862.25 2202.12 2887.7 2187.58 2902.27Z" fill="#215968" fill-opacity="0.89804" transform="matrix(1 0 0 1.00267 -1402.83 -2374.19)"/><path d="M2191.2 2847.71 2205.75 2833.17 2231.21 2858.62 2216.66 2873.16Z" fill="#215968" fill-opacity="0.89804" transform="matrix(1 0 0 1.00267 -1402.83 -2374.19)"/><path d="M2220.3 2818.63 2234.85 2804.07 2260.29 2829.52 2245.75 2844.09Z" fill="#215968" fill-opacity="0.89804" transform="matrix(1 0 0 1.00267 -1402.83 -2374.19)"/><path d="M1947.59 2771.37 2042.13 2676.82 2136.67 2771.37 2042.13 2865.89Z" fill="#215968" fill-opacity="0.89804" transform="matrix(1 0 0 1.00267 -1402.83 -2374.19)"/><path d="M2027.59 2589.56 1860.33 2756.8C1852.29 2764.83 1852.29 2777.88 1860.33 2785.91L2027.59 2953.15C2035.62 2961.18 2048.64 2961.18 2056.68 2953.15L2223.93 2785.91C2231.96 2777.88 2231.96 2764.83 2223.93 2756.8L2056.68 2589.56C2048.64 2581.52 2035.62 2581.52 2027.59 2589.56ZM2165.76 2771.37 2042.13 2894.97 1918.51 2771.37 2042.13 2647.74Z" fill="#215968" fill-opacity="0.89804" transform="matrix(1 0 0 1.00267 -1402.83 -2374.19)"/></g></g></g></g></g></g></g></g></svg>