<svg width="3079" height="2080" xmlns="http://www.w3.org/2000/svg" xmlns:xlink="http://www.w3.org/1999/xlink" xml:space="preserve" overflow="hidden"><defs><clipPath id="clip0"><rect x="541" y="203" width="3079" height="2080"/></clipPath><clipPath id="clip1"><rect x="1149" y="308" width="1859" height="1859"/></clipPath><clipPath id="clip2"><rect x="1149" y="308" width="1859" height="1859"/></clipPath><clipPath id="clip3"><rect x="1149" y="308" width="1859" height="1859"/></clipPath><clipPath id="clip4"><rect x="747" y="-104" width="2663" height="2664"/></clipPath><clipPath id="clip5"><path d="M747.676 1227.99 2077.84-102.889 3407.97 1227.99 2077.84 2558.84Z" fill-rule="evenodd" clip-rule="evenodd"/></clipPath><clipPath id="clip6"><path d="M747.676 1227.99 2077.84-102.889 3407.97 1227.99 2077.84 2558.84Z" fill-rule="evenodd" clip-rule="evenodd"/></clipPath><clipPath id="clip7"><path d="M747.676 1227.99 2077.84-102.889 3407.97 1227.99 2077.84 2558.84Z" fill-rule="evenodd" clip-rule="evenodd"/></clipPath></defs><g clip-path="url(#clip0)" transform="translate(-541 -203)"><rect x="543.5" y="205.5" width="3074" height="2075" stroke="#787878" stroke-width="4.58333" stroke-miterlimit="8" fill="#A5A5A5"/><g clip-path="url(#clip1)"><g clip-path="url(#clip2)"><g clip-path="url(#clip3)"><g clip-path="url(#clip4)"><g clip-path="url(#clip5)"><g clip-path="url(#clip6)"><g clip-path="url(#clip7)"><path d="M7061.35 10893.2 7158.32 10796.2 7213.75 10851.6 7116.78 10948.6Z" fill="#215968" fill-opacity="0.89804" transform="matrix(1 0 0 1.00054 -5704 -9338.35)"/><path d="M6950.48 10782.3 7047.49 10685.3 7102.92 10740.8 7005.92 10837.8Z" fill="#215968" fill-opacity="0.89804" transform="matrix(1 0 0 1.00054 -5704 -9338.35)"/><path d="M7172.17 11004 7269.18 10907 7324.61 10962.5 7227.6 11059.5Z" fill="#215968" fill-opacity="0.89804" transform="matrix(1 0 0 1.00054 -5704 -9338.35)"/><path d="M7504.72 11336.6 7601.73 11239.6 7657.12 11295 7560.15 11392Z" fill="#215968" fill-opacity="0.89804" transform="matrix(1 0 0 1.00054 -5704 -9338.35)"/><path d="M7393.86 11225.7 7490.87 11128.7 7546.3 11184.1 7449.29 11281.2Z" fill="#215968" fill-opacity="0.89804" transform="matrix(1 0 0 1.00054 -5704 -9338.35)"/><path d="M7283.03 11114.9 7380.04 11017.9 7435.43 11073.3 7338.46 11170.3Z" fill="#215968" fill-opacity="0.89804" transform="matrix(1 0 0 1.00054 -5704 -9338.35)"/><path d="M8349.9 10269.7 8446.91 10172.7 8502.34 10228.1 8405.33 10325.1Z" fill="#215968" fill-opacity="0.89804" transform="matrix(1 0 0 1.00054 -5704 -9338.35)"/><path d="M8460.76 10380.5 8557.77 10283.5 8613.17 10339 8516.2 10435.9Z" fill="#215968" fill-opacity="0.89804" transform="matrix(1 0 0 1.00054 -5704 -9338.35)"/><path d="M8239.08 10158.9 8336.08 10061.8 8391.48 10117.3 8294.51 10214.2Z" fill="#215968" fill-opacity="0.89804" transform="matrix(1 0 0 1.00054 -5704 -9338.35)"/><path d="M7906.53 9826.3 8003.53 9729.3 8058.96 9784.73 7961.96 9881.73Z" fill="#215968" fill-opacity="0.89804" transform="matrix(1 0 0 1.00054 -5704 -9338.35)"/><path d="M8128.22 10048 8225.22 9950.99 8280.65 10006.4 8183.65 10103.4Z" fill="#215968" fill-opacity="0.89804" transform="matrix(1 0 0 1.00054 -5704 -9338.35)"/><path d="M8017.39 9937.13 8114.36 9840.16 8169.79 9895.59 8072.82 9992.56Z" fill="#215968" fill-opacity="0.89804" transform="matrix(1 0 0 1.00054 -5704 -9338.35)"/><path d="M7283.03 10006.4 7338.46 9950.99 7435.43 10048 7380.04 10103.4Z" fill="#215968" fill-opacity="0.89804" transform="matrix(1 0 0 1.00054 -5704 -9338.35)"/><path d="M7504.72 9784.73 7560.15 9729.3 7657.12 9826.3 7601.73 9881.73Z" fill="#215968" fill-opacity="0.89804" transform="matrix(1 0 0 1.00054 -5704 -9338.35)"/><path d="M7393.86 9895.59 7449.29 9840.16 7546.3 9937.13 7490.87 9992.56Z" fill="#215968" fill-opacity="0.89804" transform="matrix(1 0 0 1.00054 -5704 -9338.35)"/><path d="M7172.17 10117.3 7227.6 10061.8 7324.61 10158.9 7269.18 10214.2Z" fill="#215968" fill-opacity="0.89804" transform="matrix(1 0 0 1.00054 -5704 -9338.35)"/><path d="M6950.48 10339 7005.92 10283.5 7102.92 10380.5 7047.49 10435.9Z" fill="#215968" fill-opacity="0.89804" transform="matrix(1 0 0 1.00054 -5704 -9338.35)"/><path d="M7061.35 10228.1 7116.78 10172.7 7213.75 10269.7 7158.32 10325.1Z" fill="#215968" fill-opacity="0.89804" transform="matrix(1 0 0 1.00054 -5704 -9338.35)"/><path d="M8017.39 11184.1 8072.82 11128.7 8169.79 11225.7 8114.36 11281.2Z" fill="#215968" fill-opacity="0.89804" transform="matrix(1 0 0 1.00054 -5704 -9338.35)"/><path d="M7906.53 11295 7961.96 11239.6 8058.96 11336.6 8003.53 11392Z" fill="#215968" fill-opacity="0.89804" transform="matrix(1 0 0 1.00054 -5704 -9338.35)"/><path d="M8128.22 11073.3 8183.65 11017.9 8280.65 11114.9 8225.22 11170.3Z" fill="#215968" fill-opacity="0.89804" transform="matrix(1 0 0 1.00054 -5704 -9338.35)"/><path d="M8239.08 10962.5 8294.51 10907 8391.48 11004 8336.08 11059.5Z" fill="#215968" fill-opacity="0.89804" transform="matrix(1 0 0 1.00054 -5704 -9338.35)"/><path d="M8349.9 10851.6 8405.33 10796.2 8502.34 10893.2 8446.91 10948.6Z" fill="#215968" fill-opacity="0.89804" transform="matrix(1 0 0 1.00054 -5704 -9338.35)"/><path d="M8460.76 10740.8 8516.2 10685.3 8613.17 10782.3 8557.77 10837.8Z" fill="#215968" fill-opacity="0.89804" transform="matrix(1 0 0 1.00054 -5704 -9338.35)"/><path d="M7421.58 10560.7 7781.84 10200.4 8142.07 10560.7 7781.84 10920.9Z" fill="#215968" fill-opacity="0.89804" transform="matrix(1 0 0 1.00054 -5704 -9338.35)"/><path d="M7726.41 9867.88 7089.06 10505.2C7058.43 10535.8 7058.43 10585.5 7089.06 10616.1L7726.41 11253.4C7757.01 11284 7806.64 11284 7837.27 11253.4L8474.62 10616.1C8505.22 10585.5 8505.22 10535.8 8474.62 10505.2L7837.27 9867.88C7806.64 9837.24 7757.01 9837.24 7726.41 9867.88ZM8252.93 10560.7 7781.84 11031.7 7310.75 10560.7 7781.84 10089.6Z" fill="#215968" fill-opacity="0.89804" transform="matrix(1 0 0 1.00054 -5704 -9338.35)"/></g></g></g></g></g></g></g></g></svg>