<?xml version="1.0" encoding="UTF-8" standalone="no"?>
<svg
        xmlns:dc="http://purl.org/dc/elements/1.1/"
        xmlns:cc="http://creativecommons.org/ns#"
        xmlns:rdf="http://www.w3.org/1999/02/22-rdf-syntax-ns#"
        xmlns:svg="http://www.w3.org/2000/svg"
        xmlns="http://www.w3.org/2000/svg"
        xmlns:sodipodi="http://sodipodi.sourceforge.net/DTD/sodipodi-0.dtd"
        xmlns:inkscape="http://www.inkscape.org/namespaces/inkscape"
        width="803"
        height="803"
        overflow="hidden"
        version="1.1"
        id="svg3867"
        xmlns:xsi="http://www.w3.org/2001/XMLSchema-instance"
        xsi:schemaLocation="http://purl.org/dc/elements/1.1/ ">
    <metadata
            id="metadata3871">
        image/svg+xml
    </metadata>
    <defs
            id="defs3805">
        <clipPath
                id="clip0">
            <rect
                    x="1946"
                    y="2784"
                    width="803"
                    height="803"
                    id="rect3793"/>
        </clipPath>
        <clipPath
                id="clip1">
            <path
                    d="M1946.08 3185.51 2347.31 2784.28 2748.53 3185.51 2347.31 3586.73Z"
                    fill-rule="evenodd"
                    clip-rule="evenodd"
                    id="path3796"/>
        </clipPath>
        <clipPath
                id="clip2">
            <path
                    d="M1946.08 3185.51 2347.31 2784.28 2748.53 3185.51 2347.31 3586.73Z"
                    fill-rule="evenodd"
                    clip-rule="evenodd"
                    id="path3799"/>
        </clipPath>
        <clipPath
                id="clip3">
            <path
                    d="M1946.08 3185.51 2347.31 2784.28 2748.53 3185.51 2347.31 3586.73Z"
                    fill-rule="evenodd"
                    clip-rule="evenodd"
                    id="path3802"/>
        </clipPath>
    </defs>
    <g
            id="g3903"
            transform="matrix(1.4327875,0,0,1.4327875,-173.56062,-177.88553)">
        <g
                id="g3865"
                transform="translate(-1946,-2784)"
                clip-path="url(#clip0)">
            <g
                    id="g3863"
                    clip-path="url(#clip1)">
                <g
                        id="g3861"
                        clip-path="url(#clip2)">
                    <g
                            id="g3859"
                            clip-path="url(#clip3)">
                        <path
                                id="path3807"
                                d="m 2129.98,3285.81 29.25,-29.25 16.72,16.72 -29.25,29.25 z"
                                style="fill:#215968;fill-opacity:0.89803999"/>
                        <path
                                id="path3809"
                                d="m 2096.54,3252.38 29.26,-29.26 16.72,16.72 -29.26,29.26 z"
                                style="fill:#215968;fill-opacity:0.89803999"/>
                        <path
                                id="path3811"
                                d="m 2163.41,3319.25 29.26,-29.26 16.72,16.72 -29.26,29.26 z"
                                style="fill:#215968;fill-opacity:0.89803999"/>
                        <path
                                id="path3813"
                                d="m 2263.72,3419.56 29.26,-29.26 16.71,16.72 -29.25,29.25 z"
                                style="fill:#215968;fill-opacity:0.89803999"/>
                        <path
                                id="path3815"
                                d="m 2230.28,3386.12 29.26,-29.26 16.72,16.72 -29.26,29.26 z"
                                style="fill:#215968;fill-opacity:0.89803999"/>
                        <path
                                id="path3817"
                                d="m 2196.85,3352.69 29.26,-29.26 16.71,16.72 -29.25,29.25 z"
                                style="fill:#215968;fill-opacity:0.89803999"/>
                        <path
                                id="path3819"
                                d="m 2518.66,3097.74 29.26,-29.26 16.72,16.72 -29.26,29.26 z"
                                style="fill:#215968;fill-opacity:0.89803999"/>
                        <path
                                id="path3821"
                                d="m 2552.1,3131.18 29.26,-29.26 16.71,16.72 -29.25,29.25 z"
                                style="fill:#215968;fill-opacity:0.89803999"/>
                        <path
                                id="path3823"
                                d="m 2485.23,3064.31 29.26,-29.26 16.71,16.72 -29.25,29.25 z"
                                style="fill:#215968;fill-opacity:0.89803999"/>
                        <path
                                id="path3825"
                                d="m 2384.92,2964 29.26,-29.26 16.72,16.72 -29.26,29.26 z"
                                style="fill:#215968;fill-opacity:0.89803999"/>
                        <path
                                id="path3827"
                                d="m 2451.79,3030.87 29.26,-29.26 16.72,16.72 -29.26,29.26 z"
                                style="fill:#215968;fill-opacity:0.89803999"/>
                        <path
                                id="path3829"
                                d="m 2418.36,2997.43 29.25,-29.25 16.72,16.72 -29.25,29.25 z"
                                style="fill:#215968;fill-opacity:0.89803999"/>
                        <path
                                id="path3831"
                                d="m 2196.85,3018.33 16.72,-16.72 29.25,29.26 -16.71,16.72 z"
                                style="fill:#215968;fill-opacity:0.89803999"/>
                        <path
                                id="path3833"
                                d="m 2263.72,2951.46 16.72,-16.72 29.25,29.26 -16.71,16.72 z"
                                style="fill:#215968;fill-opacity:0.89803999"/>
                        <path
                                id="path3835"
                                d="m 2230.28,2984.9 16.72,-16.72 29.26,29.25 -16.72,16.72 z"
                                style="fill:#215968;fill-opacity:0.89803999"/>
                        <path
                                id="path3837"
                                d="m 2163.41,3051.77 16.72,-16.72 29.26,29.26 -16.72,16.71 z"
                                style="fill:#215968;fill-opacity:0.89803999"/>
                        <path
                                id="path3839"
                                d="m 2096.54,3118.64 16.72,-16.72 29.26,29.26 -16.72,16.71 z"
                                style="fill:#215968;fill-opacity:0.89803999"/>
                        <path
                                id="path3841"
                                d="m 2129.98,3085.2 16.72,-16.72 29.25,29.26 -16.72,16.72 z"
                                style="fill:#215968;fill-opacity:0.89803999"/>
                        <path
                                id="path3843"
                                d="m 2418.36,3373.58 16.72,-16.72 29.25,29.26 -16.72,16.72 z"
                                style="fill:#215968;fill-opacity:0.89803999"/>
                        <path
                                id="path3845"
                                d="m 2384.92,3407.02 16.72,-16.72 29.26,29.26 -16.72,16.71 z"
                                style="fill:#215968;fill-opacity:0.89803999"/>
                        <path
                                id="path3847"
                                d="m 2451.79,3340.15 16.72,-16.72 29.26,29.26 -16.72,16.71 z"
                                style="fill:#215968;fill-opacity:0.89803999"/>
                        <path
                                id="path3849"
                                d="m 2485.23,3306.71 16.72,-16.72 29.25,29.26 -16.71,16.72 z"
                                style="fill:#215968;fill-opacity:0.89803999"/>
                        <path
                                id="path3851"
                                d="m 2518.66,3273.28 16.72,-16.72 29.26,29.25 -16.72,16.72 z"
                                style="fill:#215968;fill-opacity:0.89803999"/>
                        <path
                                id="path3853"
                                d="m 2552.1,3239.84 16.72,-16.72 29.25,29.26 -16.71,16.72 z"
                                style="fill:#215968;fill-opacity:0.89803999"/>
                        <path
                                id="path3855"
                                d="m 2238.64,3185.51 108.67,-108.67 108.66,108.67 -108.66,108.66 z"
                                style="fill:#215968;fill-opacity:0.89803999"/>
                        <path
                                id="path3857"
                                d="m 2330.59,2976.54 -192.25,192.25 c -9.24,9.23 -9.24,24.2 0,33.44 l 192.25,192.25 c 9.23,9.23 24.2,9.23 33.44,0 l 192.25,-192.25 c 9.23,-9.24 9.23,-24.21 0,-33.44 l -192.25,-192.25 c -9.24,-9.24 -24.21,-9.24 -33.44,0 z m 158.82,208.97 -142.1,142.1 -142.1,-142.1 142.1,-142.1 z"
                                style="fill:#215968;fill-opacity:0.89803999"/>
                    </g>
                </g>
            </g>
        </g>
    </g>
</svg>
