<svg width="2783" height="1882" xmlns="http://www.w3.org/2000/svg" xmlns:xlink="http://www.w3.org/1999/xlink" xml:space="preserve" overflow="hidden"><g transform="translate(-836 -238)"><rect x="837.5" y="239.5" width="2780" height="1879" stroke="#000000" stroke-width="3.4375" stroke-linejoin="round" stroke-miterlimit="10" fill="none"/><path d="M1573.74 1475.39 1661.55 1387.55 1711.74 1437.72 1623.93 1525.55Z" fill="#215968" fill-rule="evenodd" fill-opacity="0.901961"/><path d="M1473.74 1375.33 1561.56 1287.55 1611.74 1337.78 1523.93 1425.55Z" fill="#215968" fill-rule="evenodd" fill-opacity="0.901961"/><path d="M1673.74 1575.33 1761.56 1487.55 1811.74 1537.78 1723.92 1625.55Z" fill="#215968" fill-rule="evenodd" fill-opacity="0.901961"/><path d="M1974.76 1876.39 2061.96 1788.55 2111.76 1838.72 2024.59 1926.55Z" fill="#215968" fill-rule="evenodd" fill-opacity="0.901961"/><path d="M1874.76 1775.72 1961.94 1688.58 2011.76 1738.35 1924.57 1825.58Z" fill="#215968" fill-rule="evenodd" fill-opacity="0.901961"/><path d="M1774.76 1675.77 1861.96 1588.58 1911.76 1638.38 1824.59 1725.58Z" fill="#215968" fill-rule="evenodd" fill-opacity="0.901961"/><path d="M2737.74 912.386 2825.56 824.551 2875.74 874.716 2787.92 962.551Z" fill="#215968" fill-rule="evenodd" fill-opacity="0.901961"/><path d="M2837.74 1012.39 2925.58 924.551 2975.74 974.807 2887.94 1062.55Z" fill="#215968" fill-rule="evenodd" fill-opacity="0.901961"/><path d="M2637.74 811.865 2725.57 724.576 2775.74 774.468 2687.93 861.576Z" fill="#215968" fill-rule="evenodd" fill-opacity="0.901961"/><path d="M2337.76 511.369 2424.94 423.552 2474.76 473.735 2387.58 561.552Z" fill="#215968" fill-rule="evenodd" fill-opacity="0.901961"/><path d="M2537.76 711.778 2624.94 624.576 2674.76 674.384 2587.58 761.576Z" fill="#215968" fill-rule="evenodd" fill-opacity="0.901961"/><path d="M2437.76 611.359 2524.93 523.551 2574.76 573.744 2487.59 661.551Z" fill="#215968" fill-rule="evenodd" fill-opacity="0.901961"/><path d="M1774.76 674.384 1824.59 624.576 1911.76 711.778 1861.96 761.576Z" fill="#215968" fill-rule="evenodd" fill-opacity="0.901961"/><path d="M1974.76 473.735 2024.59 423.552 2111.76 511.369 2061.96 561.552Z" fill="#215968" fill-rule="evenodd" fill-opacity="0.901961"/><path d="M1874.76 573.744 1924.57 523.551 2011.76 611.359 1961.94 661.551Z" fill="#215968" fill-rule="evenodd" fill-opacity="0.901961"/><path d="M1673.74 774.468 1723.92 724.576 1811.74 811.865 1761.56 861.576Z" fill="#215968" fill-rule="evenodd" fill-opacity="0.901961"/><path d="M1473.74 974.807 1523.93 924.551 1611.74 1012.39 1561.56 1062.55Z" fill="#215968" fill-rule="evenodd" fill-opacity="0.901961"/><path d="M1573.74 874.716 1623.93 824.551 1711.74 912.386 1661.55 962.551Z" fill="#215968" fill-rule="evenodd" fill-opacity="0.901961"/><path d="M2437.76 1738.35 2487.59 1688.58 2574.76 1775.72 2524.93 1825.58Z" fill="#215968" fill-rule="evenodd" fill-opacity="0.901961"/><path d="M2337.76 1838.72 2387.58 1788.55 2474.76 1876.39 2424.94 1926.55Z" fill="#215968" fill-rule="evenodd" fill-opacity="0.901961"/><path d="M2537.76 1638.38 2587.58 1588.58 2674.76 1675.77 2624.94 1725.58Z" fill="#215968" fill-rule="evenodd" fill-opacity="0.901961"/><path d="M2637.74 1537.78 2687.93 1487.55 2775.74 1575.33 2725.57 1625.55Z" fill="#215968" fill-rule="evenodd" fill-opacity="0.901961"/><path d="M2737.74 1437.72 2787.92 1387.55 2875.74 1475.39 2825.56 1525.55Z" fill="#215968" fill-rule="evenodd" fill-opacity="0.901961"/><path d="M2837.74 1337.78 2887.94 1287.55 2975.74 1375.33 2925.58 1425.55Z" fill="#215968" fill-rule="evenodd" fill-opacity="0.901961"/><path d="M1899.75 1175.1 2224.76 849.558 2549.75 1175.1 2224.76 1500.56Z" fill="#215968" fill-rule="evenodd" fill-opacity="0.901961"/><path d="M2174.73 549.317 1599.48 1125C1571.84 1152.64 1571.84 1197.53 1599.48 1225.17L2174.73 1800.83C2202.35 1828.47 2247.14 1828.47 2274.79 1800.83L2850.03 1225.17C2877.65 1197.53 2877.65 1152.64 2850.03 1125L2274.79 549.317C2247.14 521.641 2202.35 521.641 2174.73 549.317ZM2649.94 1175.13 2224.76 1600.57 1799.57 1175.13 2224.76 749.592Z" fill="#215968" fill-rule="evenodd" fill-opacity="0.901961"/></g></svg>