<svg width="2785" height="1900" xmlns="http://www.w3.org/2000/svg" xmlns:xlink="http://www.w3.org/1999/xlink" xml:space="preserve" overflow="hidden"><defs><clipPath id="clip0"><rect x="808" y="446" width="2785" height="1900"/></clipPath><clipPath id="clip1"><rect x="1252" y="445" width="1896" height="1895"/></clipPath><clipPath id="clip2"><rect x="1252" y="445" width="1896" height="1895"/></clipPath><clipPath id="clip3"><rect x="1252" y="445" width="1896" height="1895"/></clipPath></defs><g clip-path="url(#clip0)" transform="translate(-808 -446)"><rect x="810.5" y="465.5" width="2780" height="1878" stroke="#2F528F" stroke-width="4.58333" stroke-miterlimit="8" fill="#A9D18E"/><g clip-path="url(#clip1)"><g clip-path="url(#clip2)"><g clip-path="url(#clip3)"><path d="M2357.83 1077.33 2653.77 1077.33 2653.77 1116.79 2357.83 1116.79Z"/><path d="M2357.83 1195.71 2653.77 1195.71 2653.77 1235.17 2357.83 1235.17Z"/><path d="M2357.83 1314.08 2555.12 1314.08 2555.12 1353.54 2357.83 1353.54Z"/><path d="M2969.44 919.5 2851.06 919.5 2851.06 832.692C2851.06 824.265 2845.71 816.766 2837.75 814.028 2630.89 744.976 2407.32 744.214 2200 811.858 1992.68 744.208 1769.11 744.962 1562.25 814.008 1554.28 816.748 1548.93 824.257 1548.94 832.692L1548.94 919.5 1430.56 919.5C1419.67 919.5 1410.83 928.333 1410.83 939.229L1410.83 1886.23C1410.83 1897.13 1419.67 1905.96 1430.56 1905.96L2063.87 1905.96C2072.15 1940.66 2103.16 1965.15 2138.84 1965.15L2261.16 1965.15C2296.84 1965.15 2327.85 1940.66 2336.13 1905.96L2969.44 1905.96C2980.33 1905.96 2989.17 1897.13 2989.17 1886.23L2989.17 939.229C2989.17 928.333 2980.33 919.5 2969.44 919.5ZM2811.6 846.897 2811.6 1752.47C2618.65 1693.99 2412.69 1693.99 2219.73 1752.47L2219.73 846.897C2412.3 785.866 2619.03 785.866 2811.6 846.897ZM1588.4 846.897C1780.97 785.866 1987.7 785.866 2180.27 846.897L2180.27 1752.47C1987.31 1693.99 1781.35 1693.99 1588.4 1752.47ZM2949.71 1866.5 2318.38 1866.5C2307.48 1866.5 2298.65 1875.33 2298.65 1886.23L2298.65 1888.2C2298.65 1908.9 2281.86 1925.69 2261.16 1925.69L2138.84 1925.69C2118.14 1925.69 2101.35 1908.9 2101.35 1888.2L2101.35 1886.23C2101.35 1875.33 2092.52 1866.5 2081.62 1866.5L1450.29 1866.5 1450.29 958.958 1548.94 958.958 1548.94 1779.69C1548.93 1790.59 1557.76 1799.42 1568.66 1799.43 1570.84 1799.43 1573.01 1799.07 1575.08 1798.36 1775.81 1731.41 1992.85 1731.41 2193.59 1798.36 2193.91 1798.43 2194.24 1798.48 2194.57 1798.51 2196.03 1798.94 2197.54 1799.19 2199.05 1799.26 2199.37 1799.26 2199.68 1799.42 2200 1799.42 2200.32 1799.42 2200.49 1799.32 2200.73 1799.3 2202.23 1799.26 2203.72 1799.03 2205.17 1798.63 2205.48 1798.63 2205.82 1798.51 2206.16 1798.41L2206.41 1798.41C2407.15 1731.47 2624.19 1731.47 2824.92 1798.41 2826.99 1799.1 2829.16 1799.44 2831.33 1799.42 2842.23 1799.42 2851.06 1790.59 2851.06 1779.69L2851.06 958.958 2949.71 958.958Z"/></g></g></g><path d="M1687.24 1215.51 1873.6 1181.39 1789.08 1350.95Z" stroke="#000000" stroke-width="4.58333" stroke-miterlimit="8" fill="#595959" fill-rule="evenodd"/><path d="M1920.32 947.236 1897.47 1135.31 1760.72 1004.18Z" stroke="#000000" stroke-width="4.58333" stroke-miterlimit="8" fill="#262626" fill-rule="evenodd"/><path d="M1736.85 1021.18 1869.93 1156.02 1682.2 1181.58Z" stroke="#000000" stroke-width="4.58333" stroke-miterlimit="8" fill="#404040" fill-rule="evenodd"/><path d="M2093.16 1044.21 1929.06 1138.89 1951.78 950.803Z" stroke="#000000" stroke-width="4.58333" stroke-miterlimit="8" fill-rule="evenodd"/><path d="M2120.02 1342.08 1933.67 1376.2 2018.18 1206.64Z" stroke="#000000" stroke-width="4.58333" stroke-miterlimit="8" fill="#7F7F7F" fill-rule="evenodd"/><path d="M1886.94 1610.36 1909.8 1422.29 2046.54 1553.42Z" stroke="#000000" stroke-width="4.58333" stroke-miterlimit="8" fill="#D0CECE" fill-rule="evenodd"/><path d="M2070.42 1536.42 1937.34 1401.57 2125.06 1376.02Z" stroke="#000000" stroke-width="4.58333" stroke-miterlimit="8" fill="#AFABAB" fill-rule="evenodd"/><path d="M1714.1 1513.38 1878.2 1418.7 1855.48 1606.79Z" stroke="#000000" stroke-width="4.58333" stroke-miterlimit="8" fill="#E7E6E6" fill-rule="evenodd"/></g></svg>