<svg width="2785" height="1883" xmlns="http://www.w3.org/2000/svg" xmlns:xlink="http://www.w3.org/1999/xlink" xml:space="preserve" overflow="hidden"><defs><clipPath id="clip0"><rect x="808" y="463" width="2785" height="1883"/></clipPath></defs><g clip-path="url(#clip0)" transform="translate(-808 -463)"><rect x="810.5" y="465.5" width="2780" height="1878" stroke="#2F528F" stroke-width="4.58333" stroke-miterlimit="8" fill="#A9D18E"/><path d="M1605.42 1170.49 1822.76 1125.29 1719 1321.55Z" stroke="#000000" stroke-width="4.58333" stroke-miterlimit="8" fill="#595959" fill-rule="evenodd"/><path d="M1880.15 865.695 1849.06 1077.46 1690.95 933.198Z" stroke="#000000" stroke-width="4.58333" stroke-miterlimit="8" fill="#262626" fill-rule="evenodd"/><path d="M1658.74 948.247 1818.42 1102.48 1597.79 1127.15Z" stroke="#000000" stroke-width="4.58333" stroke-miterlimit="8" fill="#404040" fill-rule="evenodd"/><path d="M2079.78 979.128 1891.79 1081.45 1912.18 868.395Z" stroke="#000000" stroke-width="4.58333" stroke-miterlimit="8" fill-rule="evenodd"/><path d="M2111.33 1304.51 1893.98 1349.71 1997.74 1153.45Z" stroke="#000000" stroke-width="4.58333" stroke-miterlimit="8" fill="#7F7F7F" fill-rule="evenodd"/><path d="M1836.59 1609.31 1867.68 1397.54 2025.79 1541.8Z" stroke="#000000" stroke-width="4.58333" stroke-miterlimit="8" fill="#D0CECE" fill-rule="evenodd"/><path d="M2058 1526.75 1898.33 1372.52 2118.95 1347.85Z" stroke="#000000" stroke-width="4.58333" stroke-miterlimit="8" fill="#AFABAB" fill-rule="evenodd"/><path d="M1636.96 1495.87 1824.95 1393.55 1804.57 1606.61Z" stroke="#000000" stroke-width="4.58333" stroke-miterlimit="8" fill="#E7E6E6" fill-rule="evenodd"/></g></svg>