<svg width="2785" height="1883" xmlns="http://www.w3.org/2000/svg" xmlns:xlink="http://www.w3.org/1999/xlink" xml:space="preserve" overflow="hidden"><defs><clipPath id="clip0"><rect x="808" y="463" width="2785" height="1883"/></clipPath></defs><g clip-path="url(#clip0)" transform="translate(-808 -463)"><rect x="810.5" y="465.5" width="2780" height="1878" stroke="#2F528F" stroke-width="4.58333" stroke-miterlimit="8" fill="#A9D18E"/><path d="M2370 1052 2690 1052 2690 1095 2370 1095Z" fill-rule="evenodd"/><path d="M2370 1180 2690 1180 2690 1222 2370 1222Z" fill-rule="evenodd"/><path d="M2370 1308 2583 1308 2583 1350 2370 1350Z" fill-rule="evenodd"/><path d="M3029.73 882.23 2902.08 882.23 2902.08 788.603C2902.08 779.515 2896.31 771.427 2887.71 768.474 2664.65 693.999 2423.56 693.177 2200 766.133 1976.44 693.171 1735.35 693.984 1512.29 768.453 1503.68 771.408 1497.91 779.507 1497.92 788.603L1497.92 882.23 1370.28 882.23C1358.52 882.23 1349 891.756 1349 903.509L1349 1924.89C1349 1936.64 1358.52 1946.16 1370.28 1946.16L2053.2 1946.16C2062.13 1983.6 2095.57 2010 2134.05 2010L2265.95 2010C2304.43 2010 2337.87 1983.6 2346.8 1946.16L3029.73 1946.16C3041.48 1946.16 3051 1936.64 3051 1924.89L3051 903.509C3051 891.756 3041.48 882.23 3029.73 882.23ZM2859.53 803.924 2859.53 1780.62C2651.45 1717.55 2429.35 1717.55 2221.28 1780.62L2221.28 803.924C2428.94 738.101 2651.86 738.101 2859.53 803.924ZM1540.47 803.924C1748.14 738.101 1971.06 738.101 2178.73 803.924L2178.73 1780.62C1970.65 1717.55 1748.55 1717.55 1540.47 1780.62ZM3008.45 1903.61 2327.65 1903.61C2315.9 1903.61 2306.38 1913.13 2306.38 1924.89L2306.38 1927.01C2306.38 1949.34 2288.28 1967.44 2265.95 1967.44L2134.05 1967.44C2111.72 1967.44 2093.62 1949.34 2093.62 1927.01L2093.62 1924.89C2093.62 1913.13 2084.1 1903.61 2072.35 1903.61L1391.55 1903.61 1391.55 924.787 1497.92 924.787 1497.92 1809.98C1497.92 1821.73 1507.44 1831.26 1519.19 1831.27 1521.55 1831.27 1523.89 1830.88 1526.11 1830.11 1742.58 1757.91 1976.62 1757.91 2193.09 1830.11 2193.44 1830.19 2193.79 1830.25 2194.15 1830.28 2195.72 1830.74 2197.34 1831.01 2198.98 1831.09 2199.32 1831.09 2199.66 1831.26 2200 1831.26 2200.34 1831.26 2200.53 1831.15 2200.79 1831.13 2202.41 1831.08 2204.01 1830.84 2205.57 1830.41 2205.91 1830.41 2206.28 1830.28 2206.64 1830.17L2206.91 1830.17C2423.38 1757.97 2657.42 1757.97 2873.89 1830.17 2876.12 1830.91 2878.45 1831.28 2880.8 1831.26 2892.55 1831.26 2902.08 1821.73 2902.08 1809.98L2902.08 924.787 3008.45 924.787Z" fill-rule="evenodd"/><path d="M1605.42 1170.49 1822.76 1125.29 1719 1321.55Z" stroke="#000000" stroke-width="4.58333" stroke-miterlimit="8" fill="#595959" fill-rule="evenodd"/><path d="M1880.15 865.695 1849.06 1077.46 1690.95 933.198Z" stroke="#000000" stroke-width="4.58333" stroke-miterlimit="8" fill="#262626" fill-rule="evenodd"/><path d="M1658.74 948.247 1818.42 1102.48 1597.79 1127.15Z" stroke="#000000" stroke-width="4.58333" stroke-miterlimit="8" fill="#404040" fill-rule="evenodd"/><path d="M2079.78 979.128 1891.79 1081.45 1912.18 868.395Z" stroke="#000000" stroke-width="4.58333" stroke-miterlimit="8" fill-rule="evenodd"/><path d="M2111.33 1304.51 1893.98 1349.71 1997.74 1153.45Z" stroke="#000000" stroke-width="4.58333" stroke-miterlimit="8" fill="#7F7F7F" fill-rule="evenodd"/><path d="M1836.59 1609.31 1867.68 1397.54 2025.79 1541.8Z" stroke="#000000" stroke-width="4.58333" stroke-miterlimit="8" fill="#D0CECE" fill-rule="evenodd"/><path d="M2058 1526.75 1898.33 1372.52 2118.95 1347.85Z" stroke="#000000" stroke-width="4.58333" stroke-miterlimit="8" fill="#AFABAB" fill-rule="evenodd"/><path d="M1636.96 1495.87 1824.95 1393.55 1804.57 1606.61Z" stroke="#000000" stroke-width="4.58333" stroke-miterlimit="8" fill="#E7E6E6" fill-rule="evenodd"/></g></svg>