<svg width="2785" height="2043" xmlns="http://www.w3.org/2000/svg" xmlns:xlink="http://www.w3.org/1999/xlink" xml:space="preserve" overflow="hidden"><defs><clipPath id="clip0"><rect x="808" y="371" width="2785" height="2043"/></clipPath><clipPath id="clip1"><rect x="1178" y="370" width="2044" height="2045"/></clipPath><clipPath id="clip2"><rect x="1178" y="370" width="2044" height="2045"/></clipPath><clipPath id="clip3"><rect x="1178" y="370" width="2044" height="2045"/></clipPath></defs><g clip-path="url(#clip0)" transform="translate(-808 -371)"><rect x="810.5" y="465.5" width="2780" height="1878" stroke="#2F528F" stroke-width="4.58333" stroke-miterlimit="8" fill="#A9D18E"/><g clip-path="url(#clip1)"><g clip-path="url(#clip2)"><g clip-path="url(#clip3)"><path d="M1191.75 681 1510.97 681 1510.97 723.563 1191.75 723.563Z" transform="matrix(1.00049 0 0 1 1178 371)"/><path d="M1191.75 808.688 1510.97 808.688 1510.97 851.25 1191.75 851.25Z" transform="matrix(1.00049 0 0 1 1178 371)"/><path d="M1191.75 936.375 1404.56 936.375 1404.56 978.938 1191.75 978.938Z" transform="matrix(1.00049 0 0 1 1178 371)"/><path d="M1851.47 510.75 1723.78 510.75 1723.78 417.113C1723.78 408.023 1718.01 399.934 1709.42 396.98 1486.29 322.496 1245.13 321.675 1021.5 394.64 797.872 321.668 556.715 322.481 333.584 396.959 324.98 399.915 319.206 408.015 319.219 417.113L319.219 510.75 191.531 510.75C179.778 510.75 170.25 520.278 170.25 532.031L170.25 1553.53C170.25 1565.29 179.778 1574.81 191.531 1574.81L874.659 1574.81C883.587 1612.25 917.043 1638.66 955.528 1638.66L1087.47 1638.66C1125.96 1638.66 1159.41 1612.25 1168.34 1574.81L1851.47 1574.81C1863.22 1574.81 1872.75 1565.29 1872.75 1553.53L1872.75 532.031C1872.75 520.278 1863.22 510.75 1851.47 510.75ZM1681.22 432.435 1681.22 1409.24C1473.08 1346.17 1250.92 1346.17 1042.78 1409.24L1042.78 432.435C1250.5 366.604 1473.5 366.604 1681.22 432.435ZM361.781 432.435C569.503 366.604 792.497 366.604 1000.22 432.435L1000.22 1409.24C792.08 1346.17 569.92 1346.17 361.781 1409.24ZM1830.19 1532.25 1149.19 1532.25C1137.43 1532.25 1127.91 1541.78 1127.91 1553.53L1127.91 1555.66C1127.91 1577.99 1109.8 1596.09 1087.47 1596.09L955.528 1596.09C933.198 1596.09 915.094 1577.99 915.094 1555.66L915.094 1553.53C915.094 1541.78 905.566 1532.25 893.813 1532.25L212.813 1532.25 212.813 553.313 319.219 553.313 319.219 1438.61C319.215 1450.37 328.74 1459.9 340.494 1459.9 342.849 1459.9 345.188 1459.51 347.416 1458.74 563.943 1386.53 798.058 1386.53 1014.58 1458.74 1014.93 1458.82 1015.29 1458.88 1015.65 1458.91 1017.22 1459.38 1018.84 1459.65 1020.48 1459.72 1020.82 1459.72 1021.16 1459.89 1021.5 1459.89 1021.84 1459.89 1022.03 1459.79 1022.29 1459.77 1023.91 1459.72 1025.51 1459.47 1027.08 1459.04 1027.42 1459.04 1027.78 1458.91 1028.14 1458.81L1028.42 1458.81C1244.94 1386.59 1479.06 1386.59 1695.58 1458.81 1697.81 1459.54 1700.15 1459.91 1702.5 1459.89 1714.25 1459.89 1723.78 1450.37 1723.78 1438.61L1723.78 553.313 1830.19 553.313Z" transform="matrix(1.00049 0 0 1 1178 371)"/></g></g></g><path d="M1605.42 1170.49 1822.76 1125.29 1719 1321.55Z" stroke="#000000" stroke-width="4.58333" stroke-miterlimit="8" fill="#595959" fill-rule="evenodd"/><path d="M1880.15 865.695 1849.06 1077.46 1690.95 933.198Z" stroke="#000000" stroke-width="4.58333" stroke-miterlimit="8" fill="#262626" fill-rule="evenodd"/><path d="M1658.74 948.247 1818.42 1102.48 1597.79 1127.15Z" stroke="#000000" stroke-width="4.58333" stroke-miterlimit="8" fill="#404040" fill-rule="evenodd"/><path d="M2079.78 979.128 1891.79 1081.45 1912.18 868.395Z" stroke="#000000" stroke-width="4.58333" stroke-miterlimit="8" fill-rule="evenodd"/><path d="M2111.33 1304.51 1893.98 1349.71 1997.74 1153.45Z" stroke="#000000" stroke-width="4.58333" stroke-miterlimit="8" fill="#7F7F7F" fill-rule="evenodd"/><path d="M1836.59 1609.31 1867.68 1397.54 2025.79 1541.8Z" stroke="#000000" stroke-width="4.58333" stroke-miterlimit="8" fill="#D0CECE" fill-rule="evenodd"/><path d="M2058 1526.75 1898.33 1372.52 2118.95 1347.85Z" stroke="#000000" stroke-width="4.58333" stroke-miterlimit="8" fill="#AFABAB" fill-rule="evenodd"/><path d="M1636.96 1495.87 1824.95 1393.55 1804.57 1606.61Z" stroke="#000000" stroke-width="4.58333" stroke-miterlimit="8" fill="#E7E6E6" fill-rule="evenodd"/></g></svg>